<svg width="40" height="40" viewBox="0 0 40 40" fill="none" xmlns="http://www.w3.org/2000/svg">
<g clip-path="url(#clip0_5439_46927)">
<path d="M24.5866 7.73334H33.3766C37.0699 7.73334 39.9999 10.7917 39.9999 14.485V26.3333C40.0061 27.2049 39.8391 28.0691 39.5084 28.8756C39.1778 29.682 38.6902 30.4148 38.0739 31.0312C37.4577 31.6476 36.7251 32.1354 35.9187 32.4662C35.1123 32.797 34.2482 32.9643 33.3766 32.9583H24.5866L26.7516 29.9L33.1216 27.8633C34.2683 27.48 35.0316 26.3333 35.0316 25.1883V15.505C35.0316 14.36 34.2683 13.2133 33.1216 12.83L26.7499 10.7917L24.5833 7.73334H24.5866ZM4.96659 25.185C4.96659 26.3317 5.73326 27.4783 6.87826 27.8617L13.2483 29.7717L15.4149 32.83H6.62326C5.75166 32.836 4.88756 32.6687 4.08117 32.3379C3.27478 32.007 2.54217 31.5192 1.92592 30.9028C1.30967 30.2864 0.82206 29.5537 0.491424 28.7472C0.160788 27.9407 -0.00628131 27.0766 -7.74958e-05 26.205V14.4833C-7.74958e-05 10.79 2.92992 7.73334 6.62492 7.73334H15.4133L13.2499 10.79L6.87826 12.8283C5.73159 13.2117 4.96826 14.3583 4.96826 15.505L4.96659 25.185Z" fill="#FF6A00"/>
<path d="M26.7517 18.6883H13.375V21.7467H26.7517V18.6883Z" fill="#FF6A00"/>
</g>
<defs>
<clipPath id="clip0_5439_46927">
<rect width="40" height="40" fill="white"/>
</clipPath>
</defs>
</svg>
