<svg width="40" height="40" viewBox="0 0 40 40" fill="none" xmlns="http://www.w3.org/2000/svg">
<path d="M30 13C30 18.5228 25.5228 23 20 23M30 13C30 7.47712 25.5228 2.99997 20 2.99997M30 13H10M20 23C14.4772 23 10 18.5228 10 13M20 23C22.2091 23 24 18.5228 24 13C24 7.47712 22.2091 2.99997 20 2.99997M20 23C17.7909 23 16 18.5228 16 13C16 7.47712 17.7909 2.99997 20 2.99997M10 13C10 7.47712 14.4772 2.99997 20 2.99997M24 33C24 35.2091 22.2091 37 20 37C17.7909 37 16 35.2091 16 33M24 33C24 30.7908 22.2091 29 20 29C17.7909 29 16 30.7908 16 33M24 33H36M16 33H4" stroke="white" stroke-width="3.33333" stroke-linecap="round" stroke-linejoin="round"/>
</svg>
