<svg width="40" height="40" viewBox="0 0 40 40" fill="none" xmlns="http://www.w3.org/2000/svg">
<g clip-path="url(#clip0_5439_46909)">
<path d="M39.5799 7.46999C39.1566 7.26332 38.9732 7.65832 38.7266 7.85999C38.6416 7.92499 38.5699 8.00999 38.4983 8.08666C37.8783 8.74832 37.1549 9.18166 36.2099 9.12999C34.8282 9.05332 33.6482 9.48666 32.6049 10.5433C32.3832 9.23999 31.6466 8.46332 30.5266 7.96332C29.9399 7.70332 29.3466 7.44499 28.9349 6.87999C28.6483 6.47832 28.5699 6.02999 28.4266 5.58999C28.3349 5.32332 28.2433 5.05166 27.9383 5.00666C27.6049 4.95499 27.4749 5.23332 27.3449 5.46666C26.8232 6.41999 26.6216 7.46999 26.6416 8.53332C26.6866 10.9267 27.6966 12.8333 29.7049 14.1883C29.9332 14.3433 29.9916 14.5 29.9199 14.7267C29.7832 15.1933 29.6199 15.6467 29.4766 16.115C29.3849 16.4133 29.2483 16.4767 28.9283 16.3483C27.847 15.8836 26.8649 15.216 26.0349 14.3817C24.6066 13.0017 23.3166 11.4783 21.7066 10.285C21.3335 10.0094 20.9505 9.74751 20.5582 9.49999C18.9166 7.90499 20.7749 6.59499 21.2049 6.43999C21.6549 6.27666 21.3599 5.71999 19.9066 5.72666C18.4532 5.73332 17.1232 6.21832 15.4282 6.86666C15.1764 6.96318 14.9172 7.03953 14.6532 7.09499C13.0693 6.79655 11.4493 6.73923 9.84825 6.92499C6.70658 7.27499 4.19825 8.76166 2.35325 11.2967C0.136583 14.3433 -0.385084 17.8067 0.253249 21.4167C0.924916 25.2233 2.86825 28.375 5.85325 30.8383C8.94992 33.3933 12.5149 34.645 16.5832 34.405C19.0532 34.2633 21.8049 33.9317 24.9066 31.305C25.6899 31.695 26.5099 31.85 27.8733 31.9667C28.9233 32.065 29.9333 31.9167 30.7149 31.7533C31.9399 31.4933 31.8549 30.3583 31.4132 30.1517C27.8216 28.4783 28.6099 29.16 27.8916 28.6083C29.7183 26.4483 32.4683 24.205 33.5449 16.9367C33.6283 16.3583 33.5566 15.995 33.5449 15.5283C33.5383 15.245 33.6033 15.1333 33.9283 15.1017C34.83 15.0081 35.7047 14.7392 36.5033 14.31C38.8299 13.0383 39.7699 10.9517 39.9916 8.44832C40.0249 8.06499 39.9849 7.67166 39.5799 7.46999ZM19.3016 30C15.8199 27.2633 14.1316 26.3617 13.4349 26.4C12.7816 26.44 12.8999 27.185 13.0432 27.6717C13.1932 28.1517 13.3882 28.4817 13.6616 28.9033C13.8516 29.1817 13.9816 29.5967 13.4732 29.9083C12.3516 30.6017 10.4032 29.675 10.3116 29.63C8.04325 28.2933 6.14492 26.53 4.80992 24.1183C3.51992 21.7967 2.76992 19.3067 2.64658 16.6483C2.61325 16.005 2.80158 15.7783 3.44158 15.6617C4.28177 15.5009 5.14263 15.4789 5.98992 15.5967C9.54325 16.1167 12.5666 17.705 15.1032 20.22C16.5499 21.6533 17.6449 23.365 18.7732 25.0383C19.9732 26.815 21.2632 28.5083 22.9066 29.895C23.4866 30.3817 23.9482 30.7517 24.3916 31.0233C23.0549 31.1733 20.8249 31.2067 19.3016 30ZM20.9682 19.2667C20.968 19.1839 20.9878 19.1022 21.0261 19.0289C21.0645 18.9555 21.1201 18.8925 21.1882 18.8454C21.2563 18.7983 21.3348 18.7685 21.417 18.7586C21.4992 18.7486 21.5826 18.7588 21.6599 18.7883C21.7585 18.8237 21.8436 18.889 21.9034 18.975C21.9631 19.061 21.9945 19.1636 21.9932 19.2683C21.9935 19.336 21.9802 19.403 21.9543 19.4656C21.9283 19.5281 21.8902 19.5848 21.8421 19.6324C21.794 19.68 21.7369 19.7176 21.6742 19.7429C21.6114 19.7683 21.5443 19.7809 21.4766 19.78C21.4094 19.7802 21.3429 19.7671 21.2809 19.7413C21.2189 19.7155 21.1626 19.6775 21.1154 19.6297C21.0682 19.5819 21.0311 19.5252 21.0061 19.4629C20.9811 19.4005 20.9671 19.3338 20.9682 19.2667ZM26.1516 21.9267C25.8182 22.0617 25.4866 22.1783 25.1682 22.1933C24.6893 22.21 24.2194 22.0604 23.8382 21.77C23.3816 21.3867 23.0549 21.1733 22.9182 20.5067C22.8711 20.1809 22.8801 19.8494 22.9449 19.5267C23.0616 18.9817 22.9316 18.6317 22.5466 18.315C22.2349 18.055 21.8366 17.9833 21.3999 17.9833C21.2504 17.9746 21.1052 17.9301 20.9766 17.8533C20.7932 17.7633 20.6432 17.5367 20.7866 17.2567C20.8332 17.1667 21.0532 16.9467 21.1066 16.9067C21.6999 16.57 22.3849 16.68 23.0166 16.9333C23.6032 17.1733 24.0466 17.6133 24.6849 18.2367C25.3366 18.9883 25.4549 19.1967 25.8266 19.76C26.1199 20.2017 26.3866 20.655 26.5682 21.1733C26.6799 21.4983 26.5366 21.7633 26.1516 21.9267Z" fill="#4D6BFE"/>
</g>
<defs>
<clipPath id="clip0_5439_46909">
<rect width="40" height="40" fill="white"/>
</clipPath>
</defs>
</svg>
