<svg width="40" height="40" viewBox="0 0 40 40" fill="none" xmlns="http://www.w3.org/2000/svg">
<path d="M16.9141 29.2374C11.7578 28.5922 8.125 24.7611 8.125 19.8008C8.125 17.7844 8.82814 15.6067 10 14.1549C9.49218 12.8241 9.5703 10.0012 10.1563 8.83172C11.7187 8.63009 13.8281 9.47694 15.0781 10.6464C16.5625 10.1625 18.125 9.92057 20.0391 9.92057C21.9531 9.92057 23.5156 10.1625 24.9218 10.6061C26.1328 9.47694 28.2812 8.63009 29.8437 8.83172C30.3906 9.92057 30.4687 12.7435 29.9609 14.1146C31.2109 15.6471 31.875 17.7038 31.875 19.8008C31.875 24.7611 28.2422 28.5115 23.0078 29.1971C24.3359 30.0843 25.2344 32.02 25.2344 34.238V38.4321C25.2344 39.6419 26.2109 40.3275 27.3828 39.8436C34.4531 37.061 40 29.7617 40 20.7283C40 9.31564 31.0156 1.00558e-07 19.9609 0C8.90626 -1.00558e-07 0 9.31564 0 20.7283C0 29.681 5.50781 37.1013 12.9297 39.8839C13.9844 40.2871 15 39.5613 15 38.4724V35.2462C14.4531 35.4882 13.75 35.6495 13.125 35.6495C10.5469 35.6495 9.02344 34.1977 7.92969 31.4957C7.50002 30.4069 7.03124 29.7617 6.13279 29.6407C5.66406 29.6004 5.50781 29.3987 5.50781 29.1568C5.50781 28.6728 6.28908 28.3099 7.0703 28.3099C8.20312 28.3099 9.17969 29.0358 10.1953 30.5279C10.9765 31.6974 11.7969 32.2217 12.7734 32.2217C13.75 32.2217 14.375 31.8587 15.2734 30.9312C15.9375 30.2456 16.4453 29.6407 16.9141 29.2374Z" fill="white"/>
</svg>
