<svg width="40" height="40" viewBox="0 0 40 40" fill="none" xmlns="http://www.w3.org/2000/svg">
<path d="M3.75 19.225C3.75 13.5466 6.82833 8.30163 11.8233 5.46163C14.285 4.06628 17.0662 3.33282 19.8958 3.33282C22.7254 3.33282 25.5067 4.06628 27.9683 5.46163C32.9633 8.30163 36.0417 13.5466 36.0417 19.225C36.0417 28.0016 28.8133 35.1166 19.8967 35.1166C10.98 35.1166 3.75 28 3.75 19.225Z" fill="#FF9D0B"/>
<path d="M19.8967 33.4766C27.8917 33.4766 34.375 27.095 34.375 19.225C34.375 11.355 27.8917 4.97498 19.8967 4.97498C11.9 4.97498 5.41669 11.355 5.41669 19.225C5.41669 27.095 11.9 33.475 19.8967 33.475V33.4766Z" fill="#FFD21E"/>
<path d="M19.7917 25.1884C23.8867 25.1884 25.2084 21.5951 25.2084 19.7501C25.2084 18.7901 24.5534 19.0934 23.5034 19.6017C22.5334 20.0734 21.2284 20.7267 19.7967 20.7267C16.8001 20.7267 14.3801 17.9051 14.3801 19.7501C14.3801 21.5951 15.6967 25.1884 19.7967 25.1884H19.7917Z" fill="#FF323D"/>
<path d="M24.6001 15.35C25.1334 15.53 25.3417 16.605 25.8784 16.325C26.6234 15.9367 27.0567 15.145 26.9767 14.3183C26.9352 13.912 26.7738 13.5271 26.5129 13.2128C26.252 12.8985 25.9035 12.669 25.5117 12.5533C25.1185 12.4343 24.699 12.4331 24.3051 12.5498C23.9112 12.6665 23.56 12.896 23.2951 13.21C22.7584 13.85 22.6667 14.7433 23.0617 15.4767C23.3167 15.9483 24.1251 15.1817 24.6034 15.345L24.6001 15.35ZM14.7884 15.35C14.2551 15.53 14.0417 16.605 13.5084 16.325C13.1464 16.138 12.8485 15.847 12.6531 15.4894C12.4577 15.1319 12.3736 14.724 12.4117 14.3183C12.4917 13.4933 13.0701 12.7967 13.8751 12.5533C14.2683 12.4343 14.6878 12.4331 15.0817 12.5498C15.4756 12.6665 15.8268 12.896 16.0917 13.21C16.6284 13.85 16.7201 14.7433 16.3251 15.4767C16.0717 15.9483 15.2584 15.1817 14.7834 15.345L14.7884 15.35ZM16.6551 24.25C16.8772 23.8078 17.1878 23.416 17.5677 23.0989C17.9476 22.7818 18.3886 22.5462 18.8634 22.4067C18.9801 22.3733 19.1034 22.5067 19.2284 22.6917L19.5484 23.2017C19.6634 23.3683 19.7801 23.4933 19.8967 23.4933C20.0201 23.4933 20.1467 23.37 20.2684 23.2067L20.6101 22.7033C20.7434 22.52 20.8717 22.39 21.0001 22.4283C21.8951 22.7083 22.6434 23.3217 23.0834 24.1383C24.6367 22.9317 25.2084 20.9633 25.2084 19.75C25.2084 18.9033 24.6984 19.04 23.8584 19.4333L22.8317 19.9267C21.9651 20.3267 20.9184 20.7267 19.7917 20.7267C18.6651 20.7267 17.6217 20.3267 16.7534 19.9267L15.7717 19.455C14.9051 19.0417 14.3751 18.885 14.3751 19.75C14.3751 20.9217 14.9084 22.8017 16.3534 24.0167L16.6534 24.25H16.6551Z" fill="#3A3B45"/>
<path d="M29.6868 17.2767C29.8633 17.2782 30.0384 17.245 30.2021 17.1788C30.3658 17.1126 30.5148 17.0148 30.6407 16.8909C30.7665 16.7671 30.8667 16.6197 30.9355 16.4571C31.0044 16.2945 31.0405 16.1199 31.0418 15.9434C31.0418 15.2084 30.4351 14.61 29.6868 14.61C29.5104 14.6087 29.3354 14.6422 29.1719 14.7085C29.0084 14.7747 28.8596 14.8726 28.734 14.9964C28.6083 15.1202 28.5082 15.2676 28.4395 15.4301C28.3708 15.5925 28.3347 15.767 28.3334 15.9434C28.3334 16.68 28.9401 17.2767 29.6868 17.2767ZM10.3134 17.2767C10.4898 17.278 10.6648 17.2446 10.8283 17.1783C10.9918 17.112 11.1406 17.0141 11.2663 16.8903C11.3919 16.7665 11.492 16.6192 11.5607 16.4567C11.6294 16.2942 11.6655 16.1198 11.6668 15.9434C11.6668 15.2084 11.0601 14.61 10.3134 14.61C10.1369 14.6085 9.96176 14.6418 9.79809 14.708C9.63441 14.7742 9.48539 14.872 9.35954 14.9958C9.23369 15.1196 9.13349 15.2671 9.06467 15.4297C8.99584 15.5923 8.95974 15.7668 8.95844 15.9434C8.95844 16.68 9.5651 17.2767 10.3134 17.2767ZM7.5251 21.7884C6.8501 21.7884 6.2501 22.0584 5.8301 22.555C5.47184 22.989 5.27563 23.534 5.2751 24.0967C5.01255 24.0189 4.74058 23.9774 4.46677 23.9734C3.82177 23.9734 3.23844 24.2167 2.8251 24.655C2.45787 25.028 2.22564 25.5129 2.16526 26.0328C2.10488 26.5527 2.21979 27.0778 2.49177 27.525C2.12455 27.8196 1.86307 28.2255 1.74677 28.6817C1.64677 29.0517 1.54677 29.8317 2.0801 30.625C1.87999 30.9264 1.76064 31.2741 1.7335 31.6348C1.70636 31.9955 1.77233 32.3571 1.9251 32.685C2.32177 33.5734 3.2751 34.2817 5.0751 35.0267L5.4751 35.1867C6.7551 35.6867 7.9301 36.0067 7.93844 36.01C9.42177 36.415 10.9518 36.635 12.4918 36.6667C14.9334 36.6667 16.6801 35.9284 17.6834 34.4767C19.2334 32.24 19.0868 30.185 17.2268 28.205L16.9751 27.9484C15.8218 26.8084 15.0501 25.1317 14.8918 24.7617C14.5668 23.67 13.7084 22.4567 12.2884 22.4567C11.5218 22.4684 10.8068 22.845 10.3718 23.465C9.9551 22.9484 9.54677 22.5434 9.1801 22.3084C8.68876 21.9819 8.11486 21.8016 7.5251 21.7884ZM32.4751 21.7884C33.1501 21.7884 33.7534 22.0584 34.1701 22.555C34.5301 22.9917 34.7251 23.535 34.7251 24.0967C34.9884 24.0184 35.2618 23.9784 35.5368 23.9734C36.1834 23.9734 36.7668 24.2167 37.1784 24.655C37.5457 25.028 37.7779 25.5129 37.8383 26.0328C37.8987 26.5527 37.7838 27.0778 37.5118 27.525C37.8784 27.8217 38.1401 28.2284 38.2534 28.6817C38.3534 29.0517 38.4534 29.8317 37.9201 30.625C38.3268 31.2417 38.3851 32.0184 38.0751 32.685C37.6784 33.5734 36.7251 34.2817 34.9268 35.0267L34.5284 35.1867C33.2451 35.6867 32.0701 36.0067 32.0618 36.01C30.5784 36.415 29.0484 36.635 27.5084 36.6667C25.0668 36.6667 23.3201 35.9284 22.3168 34.4767C20.7668 32.24 20.9134 30.185 22.7734 28.205L23.0251 27.9484C24.1834 26.8084 24.9534 25.1317 25.1118 24.7617C25.4368 23.67 26.2918 22.4567 27.7118 22.4567C28.4784 22.4684 29.1934 22.845 29.6284 23.465C30.0451 22.9484 30.4534 22.5434 30.8251 22.3084C31.2318 22.0384 31.6968 21.8667 32.1818 21.8084L32.4751 21.7884Z" fill="#FF9D0B"/>
<path d="M16.3084 33.5533C17.455 31.8966 17.3717 30.6533 15.8 29.1083C14.225 27.5616 13.3084 25.295 13.3084 25.295C13.3084 25.295 12.9667 23.9816 12.1884 24.105C11.4084 24.2283 10.8384 26.1883 12.4717 27.39C14.1 28.5916 12.1467 29.4066 11.5167 28.28C10.8917 27.1516 9.17502 24.2533 8.28336 23.695C7.39669 23.1416 6.77169 23.4483 6.98002 24.5966C7.18836 25.7416 10.9084 28.5133 10.5467 29.1083C10.1834 29.7116 8.90836 28.4083 8.90836 28.4083C8.90836 28.4083 4.92169 24.8333 4.05002 25.7666C3.18336 26.6966 4.71336 27.4766 6.88336 28.7716C9.06336 30.0683 9.23336 30.4133 8.92502 30.905C8.61336 31.3966 3.80836 27.405 3.35836 29.1C2.90836 30.785 8.26336 31.2733 7.93336 32.4433C7.60002 33.61 4.15836 30.2366 3.45836 31.5483C2.75002 32.865 8.31336 34.4116 8.35836 34.4233C10.15 34.8833 14.7134 35.855 16.3084 33.5533ZM23.695 33.5533C22.55 31.8966 22.6284 30.6533 24.2034 29.1083C25.775 27.5616 26.6917 25.295 26.6917 25.295C26.6917 25.295 27.0334 23.9816 27.8167 24.105C28.5917 24.2283 29.1617 26.1883 27.5334 27.39C25.9 28.5916 27.8584 29.4066 28.4834 28.28C29.1117 27.1516 30.8284 24.2533 31.7167 23.695C32.6034 23.1416 33.2334 23.4483 33.02 24.5966C32.8117 25.7416 29.095 28.5133 29.4584 29.1083C29.8167 29.7116 31.0917 28.4083 31.0917 28.4083C31.0917 28.4083 35.0834 24.8333 35.95 25.7666C36.8167 26.6966 35.2917 27.4766 33.1167 28.7716C30.9367 30.0683 30.77 30.4133 31.075 30.905C31.3867 31.3966 36.1917 27.405 36.6417 29.1C37.0917 30.785 31.7417 31.2733 32.07 32.4433C32.4034 33.61 35.8417 30.2366 36.545 31.5483C37.25 32.865 31.6917 34.4116 31.645 34.4233C29.85 34.8833 25.2867 35.855 23.695 33.5533Z" fill="#FFD21E"/>
</svg>
