<svg width="40" height="40" viewBox="0 0 40 40" fill="none" xmlns="http://www.w3.org/2000/svg">
<g clip-path="url(#clip0_5439_46911)">
<path fill-rule="evenodd" clip-rule="evenodd" d="M0 0V40H40V0H0ZM37.0367 37.0367H2.96333V2.96333H37.0367V37.0367ZM24.445 28.7633H28.1483V31.7267H23.4917L21.4833 29.7167V25.06H24.4467V28.7633H24.445ZM31.1117 28.7633H28.1483V25.06H24.445V22.0967H29.1L31.1117 24.1083V28.7633ZM18.5183 24.445H15.555V21.4817H18.5183V24.445ZM8.88833 21.4817H11.8517V28.1483H18.5183V31.1117H10.9L8.88833 29.1V21.4833V21.4817ZM31.1117 15.555V18.5183H21.4817V15.555H24.7933V11.8517H21.4817V8.88833H25.745L27.755 10.9V15.555H31.1117ZM11.8517 12.2217H15.555L18.5183 15.185V18.5183H15.555V15.185H11.8517V18.5183H8.88833V8.88833H11.8517V12.2217ZM18.5183 12.2217H15.555V8.88833H18.5183V12.2217Z" fill="#F8F676"/>
</g>
<defs>
<clipPath id="clip0_5439_46911">
<rect width="40" height="40" fill="white"/>
</clipPath>
</defs>
</svg>
