<svg width="40" height="40" viewBox="0 0 40 40" fill="none" xmlns="http://www.w3.org/2000/svg">
<path fill-rule="evenodd" clip-rule="evenodd" d="M3.01127 26.323C2.56655 26.4841 1.89648 27.6371 1.81619 28.3304C1.72783 28.8185 1.72604 29.2728 1.78413 29.7284C1.85274 30.2664 2.05877 30.7482 2.3767 31.1877C2.76661 31.7268 3.29492 32.0449 3.93832 32.1989C4.56977 32.3499 5.15971 32.215 5.72515 31.9483C6.55647 31.5562 7.1922 30.9488 7.64885 30.1556C7.69582 30.0741 7.7477 29.9952 7.79902 29.9162C7.80447 29.9079 7.82143 29.9069 7.8464 29.8973C7.84317 29.9594 7.84961 30.0184 7.83587 30.0724C7.64997 30.8018 7.32014 31.4538 6.79309 32.0033C6.50429 32.3043 6.17953 32.5525 5.79506 32.7168C5.22603 32.9601 4.64866 32.9288 4.07322 32.7414C3.52711 32.5634 3.02401 32.3058 2.60877 31.9027C2.19232 31.4984 1.91742 31.0104 1.77832 30.4497C1.71874 30.2095 1.67746 29.9649 1.62519 29.7229C1.61744 29.6871 1.59492 29.6543 1.54361 29.6191C1.53046 29.6715 1.50783 29.7234 1.50561 29.7763C1.47751 30.4461 1.55372 31.1034 1.7623 31.7427C2.00169 32.4763 2.44888 33.0607 3.06279 33.5263C3.64116 33.965 4.29171 34.253 4.9872 34.4496C5.25296 34.5247 5.23992 34.5264 5.27974 34.7953C5.39686 35.5863 5.81703 36.1566 6.55726 36.4883C7.00301 36.688 7.47179 36.7076 7.94918 36.6881C8.58069 36.6624 9.08051 36.3634 9.53031 35.9547C9.74174 35.7626 9.91727 35.5415 10.0682 35.3001C10.0954 35.2566 10.1308 35.2183 10.19 35.1422C10.1954 35.218 10.2065 35.2543 10.1992 35.2865C9.99256 36.2056 9.66524 37.0752 9.12677 37.8582C8.85673 38.2508 8.5197 38.5794 8.15116 38.8787C8.04837 38.9622 7.93647 38.9984 7.80013 38.9988L12.5815 38.9958C12.5716 38.9559 12.5875 38.9086 12.6196 38.8919C12.9229 38.7334 13.2284 38.5793 13.5338 38.4251L13.5866 38.3984C13.6021 38.3907 13.6194 38.3868 13.6363 38.3831C13.6439 38.3815 13.6513 38.3798 13.6585 38.3778C13.6601 38.3811 13.6618 38.3842 13.6636 38.3872C13.6647 38.3893 13.6659 38.3913 13.667 38.3932C13.6676 38.3942 13.6682 38.3951 13.6688 38.3961C13.6746 38.4059 13.679 38.4133 13.6771 38.4158C13.6489 38.4517 13.6207 38.4878 13.5926 38.5238L13.5923 38.5243C13.592 38.5246 13.5916 38.525 13.5913 38.5254C13.4806 38.6673 13.3699 38.8092 13.2516 38.9444C13.2191 38.9815 13.1434 38.9929 13.0868 38.9949L13.5503 38.9972C13.5556 38.9748 13.559 38.9545 13.5621 38.936C13.5681 38.9009 13.573 38.8725 13.5867 38.8493C13.6551 38.734 13.7295 38.6221 13.8044 38.5109C13.8853 38.391 13.9988 38.36 14.1463 38.3891C14.1478 38.5061 14.1053 38.6041 14.0636 38.7003C14.0449 38.7435 14.0263 38.7864 14.0119 38.8304C13.9871 38.9113 13.9563 38.9623 13.9081 38.9855L14.7149 38.875L14.7854 38.7041C15.1144 38.1991 15.4782 37.7576 15.8604 37.3313C15.9264 37.2578 16.0059 37.1961 16.0854 37.1344L16.0856 37.1343C16.122 37.106 16.1585 37.0777 16.1936 37.0483C16.2008 37.0533 16.2079 37.0583 16.2151 37.0634C16.2223 37.0684 16.2295 37.0734 16.2366 37.0784C16.2292 37.0986 16.2229 37.1196 16.2167 37.1407C16.2031 37.1865 16.1896 37.2322 16.1633 37.2689C16.1476 37.2907 16.132 37.3125 16.1163 37.3343C16.1158 37.3351 16.1152 37.3359 16.1146 37.3367C15.9819 37.5217 15.8488 37.7072 15.6995 37.8783C15.4998 38.1074 15.2918 38.3293 15.0838 38.5512C15.0835 38.5515 15.0831 38.5519 15.0828 38.5522C15.0827 38.5524 15.0825 38.5525 15.0824 38.5527C15.0098 38.6301 14.9373 38.7074 14.8651 38.7851C14.8292 38.8239 14.7869 38.8569 14.7149 38.875L15.9229 38.9854C15.8816 38.9163 15.9232 38.8732 15.9612 38.8338C15.9686 38.8262 15.9758 38.8187 15.9823 38.8112C16.1248 38.6456 16.2698 38.4821 16.4147 38.3186C16.4708 38.2554 16.5268 38.1923 16.5826 38.129C16.6513 38.0512 16.7192 37.9728 16.7871 37.8943C16.9439 37.7132 17.1006 37.5322 17.2665 37.3596C17.3926 37.2284 17.5333 37.111 17.6739 36.9937C17.7145 36.9598 17.7551 36.9259 17.7953 36.8917C17.8175 36.8728 17.847 36.8623 17.8799 36.8507C17.8963 36.8449 17.9134 36.8388 17.9309 36.8313C17.9601 36.9427 17.9049 37.0243 17.8488 37.1072C17.7974 37.1832 17.7452 37.2602 17.7567 37.3623C17.7774 37.3554 17.7956 37.3502 17.812 37.3455C17.8423 37.3369 17.866 37.3301 17.8867 37.3181C18.0294 37.2356 18.1738 37.1555 18.3182 37.0754L18.3184 37.0753C18.6587 36.8867 18.999 36.698 19.3165 36.477C19.7889 36.148 20.2922 35.8771 20.7958 35.606C20.9511 35.5224 21.1064 35.4389 21.2608 35.3535C21.5202 35.2102 21.7768 35.0619 22.0335 34.9135L22.0338 34.9133L22.0341 34.9132C22.1745 34.832 22.3149 34.7508 22.4558 34.6705C22.4917 34.6499 22.5295 34.6327 22.5674 34.6155L22.5675 34.6154C22.5851 34.6074 22.6027 34.5994 22.6201 34.5911C22.7124 34.5645 22.7747 34.5457 22.837 34.5268L22.8665 34.5653C22.8636 34.5684 22.8608 34.5715 22.858 34.5746C22.8571 34.5755 22.8562 34.5764 22.8554 34.5774C22.8532 34.5798 22.851 34.5822 22.8487 34.5847C22.8462 34.5875 22.8437 34.5903 22.8412 34.5931C22.8367 34.598 22.8323 34.603 22.8278 34.608L22.8277 34.6081C22.7998 34.6393 22.7718 34.6705 22.7411 34.6987C22.6912 34.7445 22.6399 34.789 22.5886 34.8335C22.4971 34.9128 22.4056 34.9922 22.3221 35.079C22.2038 35.202 22.0829 35.3227 21.9621 35.4433C21.625 35.7799 21.2878 36.1165 21.0061 36.5034C20.9904 36.5249 20.9741 36.546 20.9579 36.5672L20.9578 36.5673L20.9577 36.5674C20.9205 36.6158 20.8833 36.6642 20.8533 36.7167C20.6078 37.1476 20.2559 37.4833 19.9037 37.8194L19.9035 37.8195C19.8022 37.9162 19.7009 38.0129 19.602 38.1119C19.3933 38.3209 19.1967 38.5422 19.0004 38.7634C19.0001 38.7636 18.9999 38.7639 18.9997 38.7642C18.9682 38.7996 18.9368 38.8349 18.9053 38.8703C18.835 38.9493 18.7628 38.9966 18.6528 38.9982L19.9143 38.9915C19.9292 38.9425 19.9416 38.8967 19.9534 38.8535C19.9769 38.7672 19.9977 38.6911 20.0294 38.6197C20.4767 37.6129 21.0357 36.6736 21.7507 35.8291C21.9162 35.6335 22.1256 35.4952 22.3354 35.3565C22.3621 35.3389 22.3887 35.3213 22.4153 35.3036C22.9733 34.9311 23.555 34.6051 24.2018 34.4095C24.4206 34.3433 24.6421 34.2859 24.8634 34.2285C24.8857 34.2227 24.908 34.2169 24.9303 34.2111C24.9478 34.2066 24.9654 34.202 24.983 34.1974C25.0307 34.185 25.0826 34.1888 25.139 34.2023C24.6474 34.4721 24.1638 34.7481 23.7079 35.0689C23.0249 35.5449 22.5554 36.1743 22.1062 36.8623C22.0981 36.8394 22.0914 36.8211 22.0858 36.8057C22.0755 36.7775 22.0687 36.759 22.0632 36.7401C22.058 36.7224 22.0546 36.7042 22.0511 36.6863C22.0497 36.6787 22.0483 36.6713 22.0467 36.6639C21.959 36.6521 21.9271 36.7066 21.8957 36.7603C21.8901 36.7699 21.8845 36.7795 21.8786 36.7886C21.5913 37.2351 21.4079 37.7239 21.287 38.2373C21.2606 38.3496 21.2363 38.4624 21.212 38.5752C21.1925 38.6656 21.1731 38.7559 21.1525 38.846C21.1457 38.8759 21.1343 38.9048 21.1211 38.9383C21.115 38.9537 21.1086 38.9701 21.102 38.988C21.2922 38.9744 21.8991 38.9192 21.9526 38.6966C22.033 38.3617 22.2397 38.1036 22.459 37.8584L22.4801 37.8348C22.9764 37.2798 23.4732 36.7243 23.9951 36.1936C24.4059 35.7761 24.8406 35.3794 25.3353 35.0554C25.697 34.8184 26.0875 34.6588 26.5203 34.6165C26.8625 34.583 27.2073 34.5729 27.5486 34.5322C28.1886 34.4559 28.7946 34.5952 29.3999 34.776C29.7347 34.8761 30.0057 35.0688 30.265 35.2857C30.962 35.8685 31.5681 36.5364 32.1104 37.2616C32.2677 37.4719 32.4185 37.6882 32.5535 37.9128C32.6171 38.0186 32.6303 38.1529 32.6776 38.2698C32.7092 38.3479 32.7496 38.4283 32.8062 38.4891C32.8723 38.5597 32.9931 38.5582 33.0693 38.5059C33.1504 38.4502 33.1752 38.376 33.155 38.2775C33.1148 38.0809 33.0905 37.8809 33.0461 37.6855C32.9812 37.4 32.8384 37.1471 32.6818 36.9028C32.3371 36.3649 31.8997 35.91 31.4048 35.5068C30.8259 35.0351 30.2045 34.6311 29.5063 34.3565C29.2246 34.2457 28.9301 34.1669 28.641 34.0733C28.7521 33.9936 28.8743 34.0454 28.9949 34.057C29.372 34.0933 29.7413 34.1647 30.1072 34.2639C30.6632 34.4146 31.1358 34.7063 31.5519 35.0907C32.0101 35.514 32.4115 35.9879 32.7242 36.5279C32.9713 36.9546 33.1564 37.407 33.2207 37.902C33.237 38.027 33.2749 38.151 33.3167 38.2707C33.3571 38.386 33.4716 38.4629 33.5582 38.4534C33.6599 38.4422 33.7761 38.3187 33.7839 38.1973C33.7886 38.1248 33.7862 38.0458 33.762 37.9786C33.6812 37.7545 33.7194 37.5447 33.8154 37.3373C33.928 37.094 34.0745 36.8841 34.328 36.7612L34.3891 36.7316C34.6909 36.5854 34.9932 36.4389 35.285 36.2745C36.3119 35.6961 37.1589 34.9303 37.7389 33.8959C38.0806 33.2867 38.3141 32.6406 38.4252 31.9488C38.4875 31.5614 38.5117 31.1737 38.4947 30.7845C38.4541 29.8576 38.2454 28.9762 37.7129 28.1966C37.5615 27.975 37.3792 27.774 37.2069 27.567C37.1763 27.5301 37.1258 27.5095 37.0427 27.453C37.0677 27.5503 37.0709 27.6028 37.0937 27.6449C37.4186 28.2431 37.5367 28.8904 37.5755 29.5608C37.6306 30.5111 37.4529 31.4149 37.0521 32.2763C36.6437 33.1539 36.1266 33.9641 35.4842 34.6912C35.2297 34.9793 34.9502 35.2458 34.6294 35.464C34.5664 35.5068 34.4937 35.5357 34.4255 35.5711C34.4189 35.5629 34.4123 35.5547 34.4058 35.5465L34.3972 35.5358C34.4667 35.4534 34.5366 35.3715 34.6055 35.2887C35.2539 34.5088 35.7616 33.6506 36.0766 32.6846C36.2796 32.0623 36.3821 31.4238 36.441 30.7725C36.4831 30.3077 36.4818 29.8442 36.4688 29.3814C36.4564 28.9403 36.4012 28.4997 36.3501 28.0607C36.2679 27.3541 36.1179 26.6593 35.9427 25.9705C35.7988 25.4046 35.6527 24.839 35.4889 24.2786C35.1198 23.0155 34.7737 21.7468 34.4745 20.4656C34.209 19.3289 33.932 18.1948 33.6813 17.0549C33.5071 16.2633 33.3703 15.4636 33.2141 14.6679C33.0062 13.6081 32.8045 12.5471 32.4777 11.5143C32.1917 10.6101 31.8264 9.73606 31.4745 8.85668C31.1487 8.04258 30.7564 7.26245 30.2857 6.52211C29.9455 5.98702 29.5602 5.4852 29.1288 5.01845C28.1012 3.90665 26.9153 3.00456 25.5436 2.35018C24.8411 2.01511 24.1079 1.76107 23.3609 1.54298C22.7317 1.35928 22.0934 1.21354 21.4467 1.11263C21.0544 1.05139 20.6544 1.03042 20.2568 1.01278C19.8936 0.996656 19.5283 0.994608 19.1653 1.01347C18.7954 1.03269 18.4264 1.07783 18.0586 1.12413C16.9784 1.26012 15.9229 1.51716 14.8691 1.77986C13.9954 1.99767 13.1527 2.30675 12.3212 2.64937C11.0356 3.17907 9.81211 3.82398 8.65884 4.59639C7.65766 5.26695 6.706 6.00095 5.8819 6.88395C5.40167 7.3985 4.98169 7.96185 4.65198 8.58223C4.34921 9.15193 4.05491 9.7291 3.8059 10.3232C3.43615 11.2055 3.19769 12.1274 3.08178 13.0796C3.01392 13.6371 3.0096 14.1967 3.05762 14.7517C3.14613 15.7743 3.50153 16.7041 4.20098 17.4733C4.76477 18.0932 5.45501 18.5345 6.2713 18.7654C6.38807 18.7984 6.50595 18.828 6.62414 18.8555C6.64852 18.8612 6.67661 18.8512 6.72266 18.8464C6.63782 18.671 6.44643 18.6262 6.34557 18.4902C6.24142 18.3496 6.12551 18.2171 6.02935 18.0716C5.93314 17.926 5.84725 17.7723 5.77111 17.6153C5.69599 17.4605 5.63873 17.297 5.58812 17.128C5.68359 17.1611 5.71828 17.2484 5.77401 17.3147C5.92572 17.4948 6.06843 17.6832 6.22865 17.8555C6.46347 18.1081 6.72679 18.3317 7.01967 18.5154C7.13225 18.586 7.17728 18.664 7.16453 18.7936C7.12585 19.1871 7.09446 19.5814 7.05977 19.9753C7.04038 20.1954 7.01938 20.4153 7.00033 20.6353C6.98124 20.8558 6.96619 21.0767 6.94486 21.297C6.91001 21.6569 6.87308 22.0165 6.83409 22.376C6.7951 22.7355 6.75158 23.0945 6.71172 23.4539C6.67112 23.82 6.63521 24.1865 6.5924 24.5523L6.59141 24.5608L6.59139 24.5609C6.53957 25.0037 6.48775 25.4465 6.4266 25.8881C6.3614 26.3589 6.29377 26.8298 6.21162 27.298C6.10034 27.9321 5.98432 28.5665 5.71529 29.1592C5.57977 29.4579 5.38979 29.7164 5.12616 29.9186C4.94267 30.0594 4.73842 30.1345 4.50586 30.126C4.32404 30.1195 4.13751 30.1326 3.96155 30.0963C3.51984 30.0054 3.19968 29.7364 2.96315 29.3618C2.77994 29.0716 2.68897 28.7495 2.63655 28.4159C2.56795 27.9794 2.59143 27.545 2.71517 27.1207C2.76936 26.9349 2.85558 26.7584 2.92506 26.5768C2.95428 26.5005 2.97785 26.4221 3.01127 26.323ZM6.3798 7.26531C6.41394 7.23566 6.4286 7.21998 6.44324 7.2043C6.47387 7.19826 6.48275 7.19179 6.49164 7.18531L6.47956 7.2123C6.45947 7.22533 6.45721 7.25062 6.45495 7.27589C6.43705 7.29478 6.43001 7.3056 6.42477 7.31365C6.42268 7.31686 6.42088 7.31962 6.41879 7.32229C6.26906 7.51947 6.13373 7.71298 5.99892 7.90575C5.98728 7.9224 5.97564 7.93904 5.96399 7.95568C5.42548 8.72519 5.01339 9.561 4.6463 10.4212C4.57355 10.5917 4.49279 10.7588 4.40774 10.9347C4.36745 11.0181 4.32619 11.1035 4.28437 11.1921C4.27811 11.1683 4.2713 11.1487 4.2656 11.1323C4.25586 11.1043 4.24938 11.0857 4.25453 11.0712C4.31058 10.9122 4.36862 10.7539 4.42667 10.5956C4.46325 10.4958 4.49984 10.396 4.53592 10.2961C4.55414 10.2456 4.56954 10.1942 4.58608 10.1389C4.59405 10.1123 4.60228 10.0848 4.61122 10.0561C4.55853 10.038 4.51779 10.024 4.49163 10.0149C4.48279 9.98739 4.47386 9.96071 4.46511 9.93459C4.44393 9.87135 4.42383 9.81136 4.40891 9.75017C4.40034 9.71499 4.40619 9.67156 4.41913 9.63688C4.61083 9.12316 4.83764 8.63377 5.29451 8.28657C5.40366 8.20362 5.50156 8.106 5.59943 8.00843C5.6404 7.96758 5.68136 7.92674 5.72314 7.88698C5.8597 7.75703 5.9958 7.62661 6.13191 7.49618L6.13206 7.49604L6.13221 7.49589L6.13236 7.49575L6.13252 7.4956L6.13267 7.49545L6.13282 7.49531C6.19096 7.43959 6.24911 7.38388 6.30729 7.32819C6.34695 7.29801 6.36337 7.28166 6.3798 7.26531ZM6.60333 8.09575C6.63364 8.08676 6.64064 8.08007 6.64765 8.07338L6.63789 8.09804C6.62488 8.11401 6.62566 8.13861 6.62644 8.16321C6.55989 8.25379 6.51493 8.32776 6.46996 8.40173L6.46988 8.40203C6.41871 8.58396 6.41838 8.58514 6.54491 8.62816C6.55114 8.63027 6.5572 8.63233 6.56309 8.63434C6.67518 8.67252 6.72754 8.69035 6.76891 8.67628C6.80518 8.66395 6.83299 8.62709 6.8852 8.55792C6.90573 8.5307 6.93004 8.49849 6.96012 8.4608C6.99522 8.4368 7.00321 8.42251 7.0112 8.40822C7.03943 8.37537 7.04616 8.35633 7.05288 8.33729C7.08285 8.32834 7.09038 8.31977 7.09793 8.31121L7.08888 8.34255C7.07351 8.35601 7.07467 8.37946 7.07583 8.40291C7.04872 8.43267 7.0422 8.44621 7.03568 8.45974C6.91936 8.67943 6.81669 8.88117 6.6965 9.11734C6.72416 9.11894 6.74896 9.12244 6.77112 9.12557C6.81251 9.13141 6.84475 9.13596 6.8695 9.12452C7.01111 9.05904 7.15604 9.06392 7.31269 9.0692C7.35587 9.07065 7.39993 9.07214 7.44506 9.07219L6.73998 10.7447C6.73536 10.7441 6.73074 10.7436 6.72613 10.7431C6.72151 10.7426 6.71689 10.7421 6.71227 10.7415V10.4178C6.57455 10.3699 6.51731 10.4465 6.45936 10.5239C6.41951 10.5772 6.37933 10.6309 6.31241 10.6449C6.29882 10.6 6.29718 10.5501 6.29556 10.5005C6.29172 10.3837 6.28793 10.2681 6.12854 10.2206C6.13386 10.194 6.1394 10.1688 6.14474 10.1445C6.15635 10.0916 6.16703 10.043 6.17248 9.99386C6.17729 9.95058 6.17617 9.9067 6.175 9.86122C6.17448 9.84069 6.17394 9.81984 6.17394 9.79857C6.05892 9.78758 6.02709 9.85733 5.99977 9.91721C5.99546 9.92666 5.99126 9.93586 5.98686 9.94446C5.90482 10.1051 5.82813 10.2684 5.75143 10.4318C5.72247 10.4935 5.6935 10.5551 5.66424 10.6167C5.61726 10.7127 5.5868 10.7851 5.55635 10.8577C5.54605 10.8554 5.53575 10.8532 5.52545 10.851L5.57805 10.6072C5.63614 10.4533 5.67136 10.3193 5.70525 10.1904C5.663 10.1904 5.62265 10.1906 5.58361 10.1907C5.49738 10.1911 5.41754 10.1914 5.33772 10.1899C5.25533 10.1885 5.17297 10.1852 5.08615 10.1817C5.049 10.1802 5.01103 10.1786 4.97189 10.1772C4.9835 9.98264 5.05637 9.82983 5.12692 9.6819C5.13874 9.65711 5.1505 9.63245 5.16189 9.60776C5.23949 9.43957 5.32359 9.27437 5.4077 9.10915C5.47274 8.9814 5.53778 8.85364 5.59982 8.72448C5.69617 8.52388 5.84655 8.45454 6.06151 8.49886L6.06699 8.49999C6.17025 8.52132 6.27806 8.5436 6.35346 8.43361C6.43801 8.33412 6.49532 8.25246 6.55262 8.17079C6.58512 8.13624 6.59422 8.116 6.60333 8.09575ZM27.4116 11.099L27.3825 11.0642C27.3662 11.0257 27.3654 11.0057 27.3646 10.9856C27.372 10.9923 27.3795 10.9989 27.387 11.0056L27.3876 11.0062C27.395 11.024 27.4025 11.036 27.4087 11.0459C27.4133 11.0534 27.4173 11.0597 27.42 11.0665C27.4222 11.0723 27.4189 11.0804 27.4155 11.0885C27.4152 11.0892 27.4149 11.09 27.4146 11.0907C27.4134 11.0935 27.4123 11.0963 27.4116 11.099ZM8.06348 8.50389C8.09912 8.48447 8.10918 8.47501 8.11923 8.46555L8.13062 8.49558C8.08994 8.58381 8.05643 8.6522 8.02291 8.72058C7.92408 8.92957 7.83883 9.11959 7.76279 9.31318C7.74421 9.36047 7.73555 9.4116 7.72593 9.46836C7.72125 9.49601 7.71634 9.525 7.70994 9.55553C7.73297 9.5526 7.75236 9.55124 7.76904 9.55008C7.79847 9.54802 7.81944 9.54655 7.837 9.53808C8.20726 9.3595 8.53759 9.1323 8.76168 8.77775C8.82765 8.67337 8.89322 8.56874 8.95879 8.46411C9.13262 8.18672 9.30646 7.90933 9.48769 7.6368C9.58242 7.49434 9.68859 7.35941 9.79476 7.22447C9.84263 7.16364 9.89049 7.1028 9.93731 7.04128C9.97055 7.03367 9.97547 7.02515 9.98039 7.01662L9.98026 7.05027C9.96427 7.07352 9.95743 7.10239 9.95044 7.13188C9.94529 7.15358 9.94006 7.17562 9.93106 7.19602C9.8689 7.33675 9.80437 7.47653 9.73984 7.61631C9.62151 7.87264 9.5032 8.12894 9.39954 8.39098C9.22872 8.8228 9.06967 9.2592 8.91062 9.69561L8.91055 9.6958L8.91048 9.696L8.91041 9.69619L8.91034 9.69638L8.91027 9.69658L8.9102 9.69677C8.84439 9.87733 8.77859 10.0579 8.71194 10.2381C8.71073 10.2414 8.70952 10.2447 8.70831 10.248C8.6914 10.294 8.67422 10.3407 8.63131 10.39C8.62676 10.3661 8.62135 10.3422 8.61595 10.3184C8.60384 10.265 8.59174 10.2116 8.58923 10.1577L8.58891 10.151C8.58406 10.0463 8.5796 9.94995 8.51379 9.85393C8.48744 9.81547 8.48923 9.758 8.49102 9.70064C8.49182 9.67484 8.49263 9.64907 8.49087 9.62505C8.41656 9.59546 8.36143 9.62365 8.30781 9.65107C8.29065 9.65985 8.27366 9.66854 8.25623 9.67524C8.18683 9.70194 8.11781 9.72955 8.04878 9.75717L8.04863 9.75723C8.02393 9.76712 7.99922 9.777 7.9745 9.78684C7.86178 9.83176 7.7864 9.91137 7.73867 10.0226C7.62226 10.2938 7.60532 10.3033 7.32001 10.2835C7.29274 10.2815 7.26577 10.2754 7.23913 10.2693C7.22695 10.2665 7.21485 10.2637 7.20281 10.2614C7.20122 10.0525 7.49678 9.43219 7.91422 8.76291C7.97473 8.66177 8.01911 8.58283 8.06348 8.50389ZM31.137 23.845C31.0854 23.7519 31.0707 23.6478 31.0561 23.5437C31.0459 23.4716 31.0357 23.3994 31.0132 23.3309C30.9485 22.9725 30.8793 22.6473 30.81 22.3221L30.8097 22.3203C30.804 22.2949 30.7984 22.2695 30.7929 22.2442C30.7861 22.2132 30.7793 22.1823 30.7725 22.1515C30.6891 21.7716 30.6102 21.4119 30.5093 21.0583C30.4 20.6753 30.2818 20.2948 30.1636 19.9142L30.1635 19.9141L30.1634 19.9138L30.1634 19.9136L30.1633 19.9133L30.1632 19.9131L30.1631 19.9128C30.0944 19.6916 30.0257 19.4703 29.9587 19.2485C29.8083 18.7507 29.659 18.2525 29.5097 17.7543C29.3604 17.2561 29.2111 16.758 29.0608 16.2601C28.8445 15.5437 28.6269 14.8277 28.4093 14.1117C28.4091 14.1113 28.409 14.1108 28.4088 14.1104C28.4088 14.1102 28.4087 14.1099 28.4086 14.1097C28.4086 14.1095 28.4085 14.1093 28.4084 14.1091C28.4083 14.1086 28.4082 14.1082 28.408 14.1077C28.4079 14.1073 28.4078 14.1069 28.4076 14.1064C28.4075 14.106 28.4074 14.1055 28.4072 14.1051C28.4051 14.098 28.4029 14.091 28.4008 14.0839C28.399 14.0781 28.3973 14.0723 28.3955 14.0664C28.3055 13.7704 28.2155 13.4744 28.1256 13.1784C27.9965 12.7817 27.8685 12.4156 27.7403 12.0495C27.7 11.9341 27.6595 11.8188 27.619 11.7035C27.6068 11.6689 27.5946 11.6344 27.5825 11.5998C27.5971 11.5939 27.6116 11.5881 27.6261 11.5823C27.6469 11.6328 27.668 11.6832 27.6891 11.7336C27.7369 11.848 27.7848 11.9624 27.8295 12.078C27.8817 12.213 27.9302 12.3495 27.9788 12.486L27.9788 12.4862C27.9909 12.52 28.0029 12.5538 28.015 12.5876C28.0586 12.7096 28.1016 12.8318 28.1446 12.954L28.1447 12.9544L28.1449 12.9549L28.145 12.9553C28.1451 12.9555 28.1452 12.9557 28.1452 12.9559C28.1453 12.9561 28.1454 12.9564 28.1455 12.9566C28.1461 12.9584 28.1468 12.9602 28.1474 12.962C28.1479 12.9636 28.1485 12.9652 28.149 12.9667C28.1495 12.9681 28.15 12.9694 28.1504 12.9707C28.1677 13.0197 28.1849 13.0687 28.2022 13.1177C28.2609 13.3042 28.322 13.4827 28.382 13.658C28.4463 13.8457 28.5092 14.0296 28.5664 14.2152C28.6978 14.642 28.8259 15.0698 28.9538 15.4977C28.9623 15.5261 28.9708 15.5545 28.9792 15.5829L28.9794 15.5833L28.9795 15.5838L28.9796 15.5842L28.9798 15.5847L28.9799 15.5851L28.9801 15.5856L28.9802 15.586C28.9803 15.5862 28.9803 15.5865 28.9804 15.5867L28.9806 15.5872L28.9807 15.5877L28.9809 15.5882L28.981 15.5888C29.1034 15.9983 29.2258 16.4079 29.351 16.8167C29.4732 17.216 29.598 17.6146 29.7229 18.0131C29.723 18.0134 29.7231 18.0137 29.7232 18.0141C29.9353 18.6911 30.1474 19.3682 30.3466 20.049C30.473 20.4812 30.5759 20.9203 30.6788 21.3593C30.7228 21.547 30.7668 21.7347 30.8127 21.9219C30.8309 21.9965 30.8468 22.0716 30.8626 22.1467C30.8703 22.1829 30.8779 22.2191 30.8858 22.2553C30.9438 22.6121 31.006 22.9373 31.0684 23.2625C31.11 23.4747 31.1429 23.653 31.1757 23.831L31.1764 23.8348L31.137 23.845ZM30.4158 7.16656C30.3944 7.13338 30.3731 7.1002 30.3517 7.06702C30.3325 7.02474 30.3049 6.99697 30.2787 6.97071C30.2653 6.95723 30.2523 6.94415 30.241 6.92971C30.1306 6.78804 30.0225 6.6446 29.9144 6.50115L29.9143 6.50101C29.914 6.50068 29.9138 6.50035 29.9135 6.50002C29.9134 6.49985 29.9133 6.49969 29.9132 6.49952C29.8738 6.44728 29.8344 6.39504 29.7949 6.34288C29.7645 6.31368 29.7447 6.31012 29.7072 6.30339C29.7174 6.34045 29.7282 6.37712 29.739 6.41358C29.7965 6.60809 29.8522 6.79667 29.8082 7.00688C29.775 7.16554 29.7659 7.32918 29.7563 7.50125C29.752 7.57939 29.7475 7.65926 29.7407 7.74119C29.6515 7.678 29.5899 7.63429 29.4917 7.56468C29.5168 7.77118 29.6031 7.94066 29.6871 8.10564C29.761 8.25073 29.8331 8.39235 29.8603 8.55261C29.8528 8.54548 29.8448 8.53867 29.8368 8.53187C29.8195 8.5171 29.8021 8.50233 29.79 8.48414C29.7421 8.4125 29.695 8.34038 29.6479 8.26826C29.581 8.16595 29.5141 8.06365 29.4451 7.96273C29.4276 7.93698 29.4013 7.91711 29.3749 7.89724C29.3628 7.8881 29.3507 7.87896 29.3394 7.86924L29.2959 7.89389C29.3015 7.93712 29.3072 7.98035 29.3131 8.0251C29.3133 8.0267 29.3135 8.02831 29.3137 8.02991C29.314 8.03265 29.3144 8.0354 29.3148 8.03815C29.3222 8.09517 29.33 8.15486 29.3385 8.22035C29.302 8.20155 29.2704 8.18533 29.2395 8.16946C29.2143 8.15652 29.1896 8.14381 29.163 8.13015C29.07 8.26722 29.0922 8.40853 29.1275 8.53925C29.1717 8.70318 29.2257 8.86455 29.2796 9.02591C29.3021 9.09329 29.3246 9.16066 29.3465 9.22823C29.3778 9.31383 29.4038 9.37053 29.4297 9.42686L29.4307 9.429L29.4016 9.44705C29.3863 9.42755 29.371 9.40805 29.3557 9.38855C29.3474 9.37789 29.339 9.36723 29.3306 9.35657C29.3237 9.34773 29.3168 9.33889 29.3098 9.33005C28.9794 8.68803 28.6158 8.22721 28.397 8.17396C28.433 8.35816 28.5091 8.5231 28.5844 8.68622C28.6375 8.80119 28.6901 8.91527 28.728 9.03455C28.8014 9.15721 28.8446 9.27743 28.8864 9.39365C28.9069 9.45066 28.927 9.50671 28.9502 9.5616L28.91 9.57912C28.83 9.42648 28.75 9.27385 28.67 9.12121L28.6676 9.11675L28.6552 9.09304C28.5399 8.85481 28.429 8.64315 28.3185 8.43233L28.3057 8.40781C28.2975 8.39222 28.29 8.37625 28.2824 8.3603C28.2698 8.33372 28.2573 8.30716 28.2418 8.28239C28.1823 8.18729 28.109 8.17932 28.0298 8.2603C27.9453 8.34663 27.863 8.43507 27.7819 8.52446C27.7093 8.60436 27.6279 8.62081 27.5288 8.5759C27.4126 8.52329 27.2952 8.47254 27.1758 8.42761C26.8674 8.31162 26.5581 8.19839 26.2482 8.08661C26.223 8.07751 26.1955 8.07455 26.1558 8.07028C26.1331 8.06784 26.1065 8.06497 26.074 8.06027C26.2508 8.44212 26.4134 8.79322 26.575 9.14193L26.5759 9.144L26.6161 9.23076C26.6686 9.3514 26.7148 9.44356 26.761 9.53572L26.7611 9.5359C26.7562 9.53866 26.7512 9.54142 26.7463 9.54418C26.7383 9.54862 26.7304 9.55305 26.7225 9.55749C26.6978 9.519 26.6732 9.48052 26.6485 9.44203C26.6476 9.44056 26.6467 9.43909 26.6457 9.43762C26.6235 9.40293 26.6013 9.36825 26.5791 9.33356C26.4869 9.17949 26.4002 9.05115 26.3071 8.92752C26.2807 8.89243 26.248 8.86202 26.2142 8.83062C26.1984 8.81599 26.1824 8.80114 26.1667 8.7855C26.0842 8.84646 26.1043 8.90873 26.1236 8.96856C26.1345 9.00239 26.1452 9.03544 26.1369 9.06704C26.1396 9.10991 26.1464 9.12057 26.1533 9.13123C26.1437 9.13339 26.134 9.13555 26.1244 9.13771C26.0431 9.05407 25.968 8.97385 25.8948 8.89569C25.8415 8.83881 25.7892 8.78302 25.7364 8.7278C25.5343 8.51672 25.2863 8.38295 24.9997 8.33158C24.9224 8.31773 24.842 8.32102 24.7536 8.32463C24.7108 8.32637 24.6661 8.3282 24.619 8.3282C24.5787 8.22781 24.5328 8.11333 24.4875 8.00046C24.5952 7.91398 24.6974 7.93166 24.7962 7.94876C24.8023 7.94981 24.8084 7.95086 24.8144 7.95188C24.8931 7.9652 24.9715 7.98067 25.0498 7.99613C25.1368 8.0133 25.2237 8.03046 25.3111 8.04469C25.4684 8.07027 25.5139 8.037 25.5069 7.87951C25.5006 7.74088 25.4854 7.60265 25.4702 7.46441C25.4635 7.40304 25.4567 7.34167 25.4507 7.28026C25.4458 7.23051 25.442 7.18065 25.4737 7.11474C25.496 7.14818 25.5185 7.18156 25.5409 7.21494L25.5411 7.21517C25.5916 7.29035 25.6422 7.36554 25.6917 7.44141C25.7082 7.46662 25.7233 7.49278 25.7385 7.51892C25.764 7.56294 25.7894 7.6069 25.8209 7.6461C25.8569 7.69074 25.9064 7.73981 25.9588 7.75377C26.132 7.79993 26.306 7.84302 26.48 7.88612C26.666 7.93216 26.8519 7.9782 27.0368 8.02799C27.1567 8.06025 27.2497 8.03616 27.3335 7.95577C27.3913 7.90028 27.448 7.84355 27.5046 7.78681C27.5435 7.74785 27.5824 7.70889 27.6216 7.67034C27.7155 7.57822 27.7351 7.47731 27.6682 7.36053C27.6459 7.32174 27.627 7.28107 27.6069 7.23802C27.5976 7.21805 27.5881 7.19758 27.5779 7.17655L27.5863 7.17703C27.759 7.18706 27.7689 7.18764 27.8184 7.03536C27.8547 6.92339 27.92 6.9102 28.0184 6.92534C28.1102 6.93945 28.2024 6.95028 28.2946 6.96111C28.3343 6.96577 28.3739 6.97042 28.4135 6.97534C28.4686 6.83824 28.4175 6.74296 28.3634 6.65163C28.3204 6.57889 28.2737 6.50827 28.227 6.43765L28.2267 6.43718L28.2265 6.43684L28.2264 6.4366L28.2262 6.43642L28.2262 6.4363L28.2261 6.43618C28.2064 6.40639 28.1867 6.37661 28.1673 6.34665C28.1027 6.24673 28.0464 6.17321 27.9899 6.0997C28.0025 6.08998 28.0153 6.08026 28.0279 6.07054C28.0402 6.08356 28.0524 6.09658 28.0647 6.1096C28.0803 6.12611 28.0959 6.14262 28.1114 6.15912C28.1393 6.18865 28.1671 6.21817 28.195 6.2477C28.3537 6.41811 28.4998 6.56682 28.654 6.70661C28.6744 6.72513 28.6938 6.74576 28.7132 6.76646C28.7907 6.84908 28.8693 6.93282 29.0201 6.88799C29.0459 6.88031 29.0836 6.91218 29.128 6.94966C29.1506 6.96882 29.175 6.98945 29.2004 7.007C29.275 6.82487 29.2706 6.64322 29.2662 6.4645C29.2639 6.37302 29.2617 6.2823 29.2701 6.19269C29.2961 5.91522 29.1899 5.67402 29.0479 5.41659C29.2437 5.50131 29.472 5.74807 29.8282 6.23788C30.0124 6.51315 30.1871 6.76306 30.362 7.01295C30.3892 7.07561 30.4179 7.10921 30.4468 7.1428L30.4158 7.16656ZM9.41977 17.8161C9.18246 17.6142 8.93389 17.434 8.60932 17.3997C8.40176 17.3764 8.23433 17.4176 8.06898 17.483C7.8739 17.5601 7.83331 17.5467 7.7304 17.3622C7.65888 17.2339 7.59981 17.0978 7.54574 16.9611C7.49087 16.8223 7.50434 16.7822 7.62642 16.7113C7.85082 16.581 8.09262 16.5079 8.37717 16.5116C8.29952 16.6564 8.39701 16.7239 8.49178 16.7828C8.56542 16.8284 8.64172 16.8698 8.71804 16.9112C8.77779 16.9436 8.83755 16.976 8.89606 17.0104C8.91804 17.0234 8.94063 17.0356 8.9635 17.0479C9.06946 17.1052 9.18143 17.1657 9.26548 17.3146C9.18814 17.2973 9.11231 17.2754 9.03729 17.2537C8.74596 17.1695 8.46686 17.0888 8.15881 17.3009C8.31631 17.3036 8.43121 17.3056 8.5461 17.3077C8.64641 17.3302 8.74356 17.3492 8.83798 17.3676C9.0224 17.4035 9.19645 17.4374 9.36352 17.4924C9.53864 17.5499 9.57011 17.7271 9.59856 17.8872C9.59986 17.8946 9.60116 17.9019 9.60247 17.9092L9.60045 17.9108C9.5894 17.9198 9.57834 17.9288 9.56729 17.9379C9.55165 17.925 9.53596 17.9122 9.52027 17.8994C9.48658 17.8719 9.45288 17.8443 9.41977 17.8161ZM33.4837 24.3892C33.5014 24.3774 33.519 24.3655 33.5366 24.3538C33.5498 24.3824 33.5628 24.4111 33.5759 24.4398L33.576 24.4402C34.0043 25.4169 34.37 26.3845 34.5362 27.411C34.6691 28.2319 34.5925 29.0429 34.3031 29.8286C34.0805 30.4333 33.7803 30.9939 33.3442 31.4752C33.2209 31.6113 33.089 31.7397 32.9573 31.8679L32.946 31.8789C32.9235 31.9009 32.8952 31.9169 32.8577 31.938L32.8576 31.938C32.8372 31.9495 32.8142 31.9625 32.7879 31.9788C32.791 31.9659 32.7937 31.9543 32.796 31.9438C32.7982 31.9338 32.8001 31.9247 32.8018 31.9164C32.8079 31.8874 32.8119 31.8681 32.8199 31.8506C33.1725 31.0836 33.4189 30.2825 33.5605 29.453C33.6201 29.1044 33.6585 28.7522 33.697 28.4L33.697 28.3999L33.697 28.3998L33.697 28.3997C33.7131 28.2525 33.7292 28.1053 33.7468 27.9584C33.8117 27.4157 33.7965 26.8706 33.7692 26.3274C33.7558 26.0629 33.7173 25.7995 33.6788 25.5364C33.6669 25.4547 33.6549 25.373 33.6437 25.2913C33.6205 25.1215 33.5926 24.9524 33.5646 24.7833C33.5616 24.765 33.5586 24.7466 33.5555 24.7283C33.5532 24.714 33.5508 24.6996 33.5485 24.6853C33.5415 24.6426 33.5345 24.5999 33.5277 24.5572C33.5106 24.4793 33.4972 24.4345 33.4839 24.3898L33.4837 24.3892ZM23.6086 11.9493C23.6057 12.0038 23.595 12.0579 23.5844 12.112C23.5794 12.1368 23.5745 12.1616 23.5704 12.1865C23.5592 12.4086 23.4744 12.5691 23.3606 12.7117C23.2515 12.8484 23.13 12.9757 23.0088 13.1026C23 13.1119 22.9912 13.1211 22.9824 13.1304C22.9503 13.164 22.8998 13.1805 22.8487 13.1923C22.945 12.9626 23.1069 12.79 23.2806 12.6262C23.3904 12.5226 23.483 12.4089 23.4863 12.2478C23.4543 12.0167 23.3301 11.8949 23.1337 11.8522C22.9652 11.8156 22.887 11.7155 22.8596 11.5507C22.8135 11.2737 22.7626 10.9969 22.6999 10.7232C22.4669 9.70734 22.1739 8.71096 21.7337 7.76082C21.5184 7.2962 21.2855 6.84276 21.0109 6.40966C20.7468 5.99311 20.4408 5.60925 20.1113 5.24359C19.5168 4.5836 18.8354 4.02328 18.089 3.54141C17.4606 3.13576 16.7868 2.82651 16.0535 2.66302C15.7559 2.59665 15.4509 2.55953 15.1475 2.52262L15.1363 2.52126C14.9224 2.49522 14.7055 2.47806 14.4902 2.48166C14.0184 2.48954 13.5472 2.51647 13.0846 2.62261C13.0527 2.62993 13.0176 2.62356 12.972 2.60085C12.9907 2.59109 13.0091 2.58043 13.0275 2.56977C13.0672 2.54672 13.1069 2.52367 13.1497 2.50982C13.2591 2.47439 13.3683 2.4384 13.4776 2.40241C13.8235 2.28843 14.1696 2.17442 14.5205 2.07784C14.89 1.97612 15.2674 1.89346 15.6466 1.83803C15.966 1.79132 16.2939 1.77226 16.6164 1.784C16.9993 1.79795 17.3826 1.84369 17.7617 1.90134C18.3324 1.98813 18.8736 2.17491 19.396 2.4198C20.1004 2.75003 20.7248 3.19101 21.2909 3.72067C22.1845 4.55681 22.9271 5.50646 23.5265 6.57109C24.1007 7.59075 24.5358 8.66592 24.8558 9.78694C24.9466 10.1048 25.0181 10.4281 25.0895 10.7514L25.0895 10.7516L25.0896 10.7517L25.0896 10.7519L25.0896 10.752L25.0896 10.7521L25.0897 10.7522C25.1208 10.8933 25.152 11.0345 25.1848 11.1751C25.1924 11.2077 25.1956 11.2416 25.1975 11.2751C25.2075 11.4505 25.1766 11.5007 25.0171 11.5708C24.9863 11.5843 24.9549 11.5967 24.9235 11.609C24.7885 11.662 24.7119 11.7708 24.7163 11.9042C24.7206 12.0324 24.7822 12.1507 24.9191 12.2062C25.0129 12.2443 25.1059 12.2843 25.1981 12.326C25.5063 12.4653 25.8108 12.611 26.0721 12.8307C26.0859 12.8423 26.1033 12.8497 26.1206 12.8571C26.1285 12.8604 26.1364 12.8638 26.144 12.8676C26.1392 12.8745 26.1344 12.8813 26.1296 12.8882C26.1248 12.8951 26.12 12.902 26.1152 12.9088C26.1023 12.9051 26.0893 12.9019 26.0762 12.8987C26.0479 12.8918 26.0197 12.8849 25.9938 12.8729C25.6702 12.7231 25.3473 12.572 25.0244 12.4208L24.9113 12.3679C24.6978 12.268 24.5177 11.8929 24.5797 11.6656C24.5906 11.6253 24.6282 11.5875 24.6625 11.5596C24.6912 11.5363 24.7265 11.5206 24.7615 11.5051C24.7702 11.5012 24.7788 11.4974 24.7874 11.4934C25.0021 11.394 25.0442 11.3206 25.0149 11.0374C25.0114 11.0041 25.0016 10.9713 24.9918 10.9385C24.9881 10.926 24.9843 10.9134 24.9809 10.9008C24.9241 10.6892 24.8428 10.6183 24.6177 10.6377C24.4337 10.6535 24.2507 10.682 24.0677 10.7105C23.9975 10.7214 23.9273 10.7324 23.857 10.7426C23.8258 10.7472 23.7944 10.7516 23.7631 10.756C23.6542 10.7713 23.5452 10.7866 23.4378 10.8091C23.0342 10.8935 22.9872 11.1404 23.0407 11.4531C23.0593 11.561 23.1292 11.6498 23.2601 11.6594C23.2825 11.661 23.3045 11.6667 23.3265 11.6724C23.3437 11.6768 23.3609 11.6812 23.3783 11.6838C23.5803 11.7129 23.6191 11.7533 23.6086 11.9493ZM11.1661 15.6517C11.3942 15.5706 11.6342 15.5226 11.8689 15.46C11.9998 15.4371 12.0967 15.4187 12.1937 15.4003L12.194 15.4007C12.2018 15.4129 12.2096 15.425 12.2174 15.4371C12.178 15.4873 12.1361 15.5358 12.0995 15.588C11.9875 15.7472 11.8728 15.905 11.7692 16.0696C11.733 16.1272 11.726 16.2032 11.6948 16.3069C11.7875 16.2988 11.8458 16.3021 11.8992 16.2874C12.0903 16.2346 12.2589 16.1382 12.4185 16.0209C12.7564 15.7723 13.1065 15.5427 13.5048 15.3979C13.8154 15.285 14.1271 15.1749 14.4399 15.0681C14.5944 15.0154 14.632 15.0304 14.7335 15.1618C14.8076 15.2578 14.8844 15.3528 14.948 15.4555C15.0344 15.5951 15.1592 15.6308 15.3117 15.6183C16.0755 15.5561 16.841 15.5672 17.6063 15.5687C17.6941 15.5689 17.782 15.5802 17.8699 15.5808C18.0283 15.5818 18.0599 15.5511 18.0737 15.3992C18.0852 15.2728 18.0984 15.1467 18.1144 14.9838C18.1495 15.0495 18.1746 15.085 18.1882 15.1245C18.2143 15.2006 18.2456 15.2777 18.2538 15.3566C18.2763 15.5719 18.3755 15.6264 18.611 15.6548C18.9384 15.6941 19.265 15.7503 19.5865 15.8234C19.8306 15.8789 19.8027 15.8993 19.8467 16.1246C19.8696 16.242 19.8638 16.3659 19.8641 16.4868C19.8657 17.0125 19.8779 17.5386 19.8607 18.0637C19.8465 18.4987 19.8132 18.9347 19.7581 19.3665C19.6879 19.9173 19.5948 20.4656 19.4981 21.0126C19.3604 21.791 19.2073 22.5669 19.0667 23.345C18.9607 23.9312 18.8588 24.5184 18.7642 25.1065C18.6643 25.728 18.5684 26.3501 18.4845 26.9737C18.4392 27.31 18.4149 27.6494 18.3906 27.9883L18.3906 27.9884L18.3873 28.0348C18.3695 28.2824 18.3625 28.531 18.3597 28.7792C18.3549 29.2033 18.4041 29.6234 18.4962 30.0363C18.5288 30.1827 18.4952 30.2789 18.3873 30.3723C18.1732 30.5578 17.9644 30.7494 17.7545 30.9397C17.6313 31.0514 17.5995 31.0474 17.5184 30.8929C17.2646 30.4085 16.9802 29.9428 16.6273 29.5234C16.3981 29.2512 16.1641 28.9801 15.907 28.7347C15.6795 28.5177 15.4052 28.3609 15.0671 28.4024C14.7728 28.4386 14.4804 28.4893 14.1865 28.5285C13.7126 28.5916 13.2393 28.6607 12.7637 28.7077C12.4414 28.7396 12.1157 28.7501 11.7917 28.7486C11.3536 28.7465 10.945 28.6369 10.6264 28.317C10.4996 28.1897 10.3797 28.0467 10.2921 27.8911C9.84977 27.1056 9.4149 26.3159 8.98576 25.5232C8.66513 24.9309 8.38953 24.3189 8.19995 23.6706C8.03327 23.1005 7.91712 22.523 7.9396 21.9273C7.9507 21.6332 7.9934 21.3403 8.02381 21.0472C8.02562 21.0298 8.04549 21.0142 8.06345 20.9883C8.08495 21.0021 8.11551 21.0105 8.12361 21.0287C8.28491 21.3905 8.56365 21.6523 8.86262 21.899C9.05316 22.0562 9.18371 22.2492 9.15541 22.5091C9.14553 22.5998 9.11425 22.6901 9.07995 22.7757C9.058 22.8304 9.01555 22.8782 8.97721 22.925C8.82534 23.1103 8.8152 23.3102 8.89976 23.5271C8.98073 23.7348 9.06742 23.9377 9.21596 24.1088C9.24192 24.1387 9.25881 24.1764 9.28725 24.2224C9.18255 24.3065 9.18331 24.4065 9.23421 24.523C9.27133 24.6078 9.29889 24.7025 9.30412 24.7945C9.31571 24.9981 9.42145 25.1512 9.55632 25.2852C9.66521 25.3935 9.78818 25.4882 9.91035 25.5824L9.92809 25.5961C9.98799 25.6422 10.0545 25.7207 10.1402 25.645C10.2222 25.5724 10.1125 25.5166 10.1102 25.4373C10.2845 25.338 10.5192 25.3318 10.6836 25.1369C10.5558 25.0944 10.4607 25.13 10.3647 25.1367C10.1898 25.1492 10.0133 25.1674 9.83942 25.1557C9.66157 25.1439 9.52901 24.9621 9.55315 24.8017C9.58043 24.6206 9.75861 24.4988 9.95393 24.5331C9.90967 24.689 9.74088 24.8496 9.95002 25.0082C10.1606 24.8446 10.2058 24.691 10.1047 24.513C10.3586 24.3385 11.0628 24.3676 11.3938 24.5679C11.3666 24.679 11.1677 24.6491 11.1898 24.8175C11.3707 24.8125 11.5329 24.7514 11.6951 24.6966C11.8094 24.6579 11.9188 24.6046 12.03 24.5572C12.1449 24.5082 12.1821 24.4393 12.1497 24.3377C12.1161 24.233 12.031 24.1835 11.9161 24.2183C11.7894 24.2566 11.6723 24.2327 11.5626 24.1769C11.3459 24.0667 11.1308 23.953 10.9205 23.8314C10.6921 23.6993 10.4637 23.572 10.2063 23.5C10.0241 23.449 9.84499 23.4356 9.67029 23.5086C9.559 23.5551 9.49499 23.5214 9.43351 23.4301C9.38113 23.3524 9.31985 23.2791 9.25364 23.2126C9.17388 23.1324 9.16903 23.0501 9.21931 22.9563C9.26066 22.8792 9.30388 22.8028 9.34143 22.7238C9.43915 22.5183 9.42457 22.3112 9.30012 22.1283C9.1992 21.9801 9.07641 21.8417 8.94299 21.7212C8.69453 21.4967 8.47393 21.254 8.34007 20.9451C8.29786 20.8477 8.26654 20.7421 8.25201 20.6372C8.23035 20.4811 8.28056 20.3457 8.41712 20.2499C8.50545 20.1879 8.58994 20.1205 8.67747 20.0574C9.29396 19.6128 9.65922 19.0104 9.78636 18.2703C9.85156 17.8908 9.70673 17.5562 9.48461 17.2539C9.29677 16.9983 9.03231 16.8331 8.76565 16.6721C8.72668 16.6486 8.68495 16.6295 8.65703 16.615C8.72528 16.5772 8.82957 16.5543 8.84687 16.5026C8.88007 16.4035 8.76728 16.3629 8.6999 16.312C8.64433 16.27 8.58317 16.2353 8.48817 16.1738C8.96265 15.9647 9.42436 15.8699 9.87239 15.778L9.90506 15.7712C9.96198 15.6559 9.89538 15.5913 9.85478 15.5141C9.648 15.1216 9.44484 14.727 9.24581 14.3305C9.21145 14.262 9.20307 14.1807 9.21629 14.0889C9.26628 14.1581 9.31679 14.227 9.36618 14.2967C9.69957 14.7669 10.0877 15.1845 10.5462 15.5387C10.7391 15.6876 10.9286 15.7362 11.1661 15.6517ZM17.2033 32.7598C17.3348 32.6246 17.4666 32.4896 17.5983 32.3546C17.6646 32.2866 17.731 32.2186 17.7973 32.1506C18.1344 31.8104 18.4584 31.4987 18.847 31.2135C18.8628 31.2457 18.8782 31.2754 18.8928 31.3035C18.9216 31.3592 18.9473 31.4087 18.9673 31.4604C19.1172 31.8484 19.3253 32.2044 19.6266 32.4904C19.8798 32.7308 20.1591 32.9465 20.4408 33.1543C20.4654 33.1724 20.4899 33.1906 20.5145 33.2088C20.8802 33.4793 21.2472 33.7507 21.6795 33.9158C21.6989 33.9232 21.7155 33.9379 21.7354 33.9555C21.7457 33.9647 21.7569 33.9746 21.7698 33.9847C21.7612 33.9941 21.7536 34.0035 21.7464 34.0123C21.7318 34.0303 21.7188 34.0463 21.7023 34.0572C21.55 34.159 21.3984 34.262 21.2468 34.365C20.8568 34.63 20.4668 34.8949 20.0645 35.14C19.8409 35.2762 19.5986 35.3824 19.3564 35.4885C19.251 35.5347 19.1457 35.5808 19.0419 35.6294C18.9745 35.661 18.907 35.6927 18.8395 35.7243C18.8339 35.727 18.8282 35.7296 18.8226 35.7322L18.8221 35.7325L18.8217 35.7326C18.4303 35.9161 18.039 36.0996 17.646 36.2795C17.6289 36.2873 17.6118 36.296 17.5946 36.3046C17.5106 36.3468 17.4244 36.3902 17.3222 36.3542C17.2962 36.2868 17.2725 36.2186 17.2489 36.1506C17.1969 36.0008 17.1453 35.8523 17.0704 35.7166C16.9137 35.4327 16.74 35.158 16.5664 34.8834C16.5205 34.8108 16.4746 34.7382 16.429 34.6654C16.2965 34.454 16.1625 34.2435 16.0284 34.033L16.0283 34.0328L16.0282 34.0326L16.028 34.0323C16.0277 34.0318 16.0274 34.0314 16.0271 34.0309C15.9193 33.8617 15.8115 33.6925 15.7046 33.5227C15.6835 33.4893 15.6665 33.4533 15.646 33.4093C15.6447 33.4064 15.6433 33.4035 15.6419 33.4005L15.6418 33.4003L15.6416 33.3997C15.6299 33.3745 15.6169 33.3467 15.6015 33.3153C15.6367 33.3123 15.6679 33.3089 15.6966 33.3059C15.7523 33.2999 15.7982 33.295 15.8441 33.2953C16.1048 33.2971 16.3537 33.2373 16.5968 33.1529C16.8305 33.0718 17.0312 32.9367 17.2033 32.7598ZM16.3953 6.47814C16.544 6.5884 16.6549 6.72995 16.7654 6.87097C16.823 6.94462 16.8806 7.01813 16.9434 7.08696C17.5473 7.87323 18.1775 9.23467 18.2275 9.66927C18.1368 9.65243 18.0788 9.59213 18.0218 9.53291C17.9786 9.48799 17.936 9.44369 17.8802 9.41948C17.801 9.44138 17.7945 9.48705 17.801 9.55854C17.8196 9.76279 17.8256 9.96812 17.8173 10.1771C17.7466 10.0583 17.7019 9.9284 17.6573 9.79898C17.6039 9.64405 17.5508 9.48981 17.4536 9.3561L17.4029 9.36005C17.3993 9.37662 17.3948 9.39318 17.3903 9.40974C17.3804 9.44606 17.3705 9.48238 17.3698 9.51888C17.3675 9.63049 17.3677 9.74216 17.3679 9.85381C17.368 9.93754 17.3682 10.0213 17.3673 10.105C17.3668 10.1548 17.3561 10.2043 17.3304 10.2593C17.2355 10.1372 17.1569 10.0051 17.0773 9.8715C16.9745 9.6989 16.8701 9.52367 16.7271 9.36368C16.6801 9.48118 16.6975 9.59046 16.7146 9.69772C16.7317 9.80528 16.7485 9.91082 16.6997 10.0206C16.6873 9.99053 16.6758 9.96202 16.6648 9.93467C16.6413 9.87621 16.62 9.82303 16.5956 9.77124C16.539 9.65059 16.4817 9.62912 16.3531 9.67752C16.3203 9.68988 16.2884 9.70468 16.2565 9.71948C16.2394 9.72742 16.2223 9.73535 16.205 9.74292L16.2046 9.74311C16.0287 9.81994 16.0286 9.81997 15.9344 9.98114C15.6211 9.745 15.2534 9.64105 14.8773 9.56351C14.7593 9.53919 14.7011 9.48175 14.6805 9.36817C14.6686 9.30206 14.6532 9.23657 14.6378 9.17107C14.6257 9.11917 14.6135 9.06726 14.603 9.01503C14.5733 8.8663 14.5809 8.84278 14.7176 8.78239C14.8152 8.73926 14.9144 8.69976 15.0137 8.66025C15.1027 8.6248 15.1918 8.58935 15.2796 8.55127C15.3403 8.52499 15.3981 8.4923 15.4613 8.45661C15.4915 8.43952 15.523 8.42174 15.5566 8.40365C15.5619 8.41362 15.5677 8.42489 15.574 8.43703C15.5902 8.46812 15.6093 8.50501 15.6302 8.54084C15.6709 8.61025 15.7281 8.64032 15.796 8.58071C15.8257 8.55461 15.856 8.52889 15.8864 8.50314C15.9903 8.41508 16.0946 8.32667 16.1764 8.2214C16.2161 8.17022 16.2249 8.09533 16.2342 8.01685C16.2384 7.98036 16.2428 7.94309 16.2504 7.90707H16.4516C16.4924 7.94587 16.5014 7.99753 16.5108 8.05097C16.5231 8.12112 16.536 8.19433 16.6217 8.24558C16.6288 8.22295 16.637 8.20196 16.6447 8.18212C16.6602 8.14241 16.674 8.10729 16.6727 8.07271C16.6712 8.03246 16.6701 7.99209 16.6689 7.95169C16.664 7.77719 16.659 7.60197 16.6278 7.43189C16.5947 7.25239 16.5438 7.07614 16.4928 6.8999C16.471 6.8246 16.4493 6.74931 16.4289 6.67376L16.4267 6.66568C16.4107 6.60643 16.3946 6.54696 16.3953 6.47814ZM21.1329 8.42867C20.9167 7.95388 20.6316 7.53034 20.3382 7.11193C20.3128 7.07983 20.289 7.04795 20.2658 7.01671C20.1782 6.89926 20.0973 6.79085 19.962 6.71402C19.859 6.89819 19.7756 7.08766 19.7761 7.28183C19.7765 7.41468 19.8115 7.54742 19.8468 7.68109C19.8623 7.73999 19.8779 7.79907 19.8906 7.85842L19.6882 7.79474C19.6348 7.89617 19.6645 7.98528 19.6944 8.07496C19.717 8.14289 19.7398 8.21114 19.7266 8.28534C19.7194 8.27891 19.7125 8.27271 19.7058 8.26672C19.6996 8.26108 19.6935 8.25562 19.6876 8.25031C19.6601 8.22553 19.6362 8.20404 19.6118 8.18316C19.6065 8.17858 19.6009 8.17309 19.5953 8.16751C19.5796 8.15198 19.5633 8.13579 19.5487 8.13683C19.5227 8.13866 19.4965 8.14023 19.4704 8.14181C19.3553 8.14873 19.2396 8.1557 19.1302 8.18513C19.0788 8.19898 19.0392 8.29092 19.0139 8.35493C19.0006 8.38852 19.0004 8.42723 19.0002 8.47668C19 8.50185 18.9999 8.5298 18.998 8.56127C18.9831 8.54429 18.9708 8.53142 18.9608 8.52087C18.944 8.50314 18.9333 8.49195 18.9266 8.4788C18.8328 8.29722 18.6706 8.25724 18.4842 8.26148C18.4296 8.26273 18.3749 8.26224 18.3202 8.26175C18.2528 8.26114 18.1853 8.26054 18.118 8.26319C18.0279 8.26675 17.9586 8.239 17.9122 8.16174C17.8692 8.08982 17.8265 8.01768 17.7838 7.94553C17.7836 7.94531 17.7835 7.94508 17.7834 7.94485C17.7405 7.87248 17.6977 7.80011 17.6545 7.72796C17.6098 7.65323 17.6233 7.59385 17.6833 7.52946C17.7267 7.48296 17.7658 7.43259 17.805 7.38221C17.8403 7.33677 17.8756 7.29132 17.914 7.24867C18.0484 7.0994 18.1425 6.94502 17.9973 6.72539L18.5885 6.58885C18.6082 6.47208 18.575 6.36678 18.54 6.25604C18.5087 6.15691 18.476 6.05343 18.4788 5.93347C18.5029 5.95983 18.5239 5.9825 18.5428 6.00286C18.5791 6.04195 18.6074 6.07252 18.6344 6.1043C18.6959 6.17682 18.7566 6.25001 18.8173 6.32319C18.8468 6.35876 18.8763 6.39432 18.9059 6.42981C18.9681 6.50427 19.0395 6.51271 19.1181 6.45672C19.2656 6.35152 19.4128 6.246 19.5692 6.13393C19.5698 6.13355 19.5703 6.13318 19.5708 6.1328C19.6283 6.0916 19.6871 6.0495 19.7475 6.0062C19.7811 6.04361 19.8167 6.08252 19.8534 6.1227C19.9381 6.21521 20.0289 6.31449 20.1148 6.41786C20.427 6.79364 20.6601 7.21813 20.8754 7.65341C20.899 7.70126 20.9296 7.74568 20.9595 7.78901C20.9731 7.80866 20.9864 7.82808 20.999 7.8475C21.0344 7.83546 21.0678 7.82311 21.0997 7.81126C21.1725 7.7843 21.2382 7.75996 21.306 7.74783C21.3577 7.7386 21.4292 7.75849 21.471 7.79134C21.5726 7.87138 21.7821 8.40157 21.7874 8.5687C21.7089 8.55716 21.6367 8.52028 21.5643 8.48327C21.4341 8.41675 21.3031 8.34979 21.1329 8.42867ZM21.7423 29.0186C21.9899 28.8671 22.2396 28.7188 22.4892 28.5706C22.5935 28.5086 22.6977 28.4467 22.8019 28.3846C22.8889 28.3297 22.9516 28.2931 23.0384 28.2424C23.048 28.2771 23.0572 28.3091 23.0659 28.3393C23.0833 28.4 23.0988 28.4538 23.1109 28.5084C23.1328 28.6073 23.1533 28.7065 23.1738 28.8057C23.213 28.9952 23.2522 29.1847 23.3011 29.3716C23.3529 29.5701 23.3068 29.7195 23.1604 29.8594L23.1417 29.8773C22.8978 30.1105 22.6523 30.3453 22.3115 30.4217C22.1381 30.4606 21.9494 30.4584 21.771 30.4409C21.6286 30.4269 21.5035 30.3369 21.4292 30.2097C21.3549 30.0827 21.2909 29.9495 21.2269 29.8165C21.2154 29.7926 21.204 29.7687 21.1924 29.7449C21.108 29.5704 21.171 29.4254 21.3088 29.3157C21.4454 29.2067 21.593 29.11 21.7423 29.0186ZM9.76441 9.86883C9.75435 9.87034 9.7442 9.87205 9.73401 9.87378C9.65875 9.88649 9.58094 9.89963 9.51675 9.83276C9.4826 9.79401 9.45217 9.7606 9.42531 9.7311C9.33631 9.63338 9.28647 9.57865 9.27021 9.51542C9.24952 9.43493 9.28324 9.34065 9.35986 9.12637C9.36088 9.12352 9.3619 9.12065 9.36294 9.11775C9.41439 8.97385 9.46766 8.83058 9.5187 8.69333L9.51881 8.69303L9.51889 8.69281C9.54139 8.63231 9.56345 8.57298 9.58473 8.51528C9.68959 8.47032 9.75817 8.50777 9.82353 8.54347C9.83482 8.54963 9.846 8.55575 9.85727 8.56137C9.93206 8.59874 10.0063 8.63733 10.0805 8.67591C10.2158 8.74626 10.3511 8.81661 10.4899 8.87955C10.6303 8.94328 10.6598 8.9256 10.7621 8.80601C10.7677 8.82376 10.7718 8.84398 10.7758 8.86419C10.785 8.90984 10.7941 8.95548 10.8214 8.97267C10.8676 9.00177 10.9493 8.99081 11.0109 8.97704C11.0781 8.96206 11.1443 8.94271 11.2105 8.92336C11.2869 8.901 11.3634 8.87866 11.4413 8.86309C11.6152 8.82831 11.7049 8.72766 11.7545 8.56258C11.8217 8.33954 11.8971 8.11892 11.9725 7.89834L11.9726 7.89797C11.997 7.82649 12.0214 7.75502 12.0456 7.68347C12.0515 7.66598 12.0615 7.64986 12.0759 7.62667C12.0842 7.61331 12.094 7.59761 12.1052 7.57794C12.1227 8.17438 12.1397 8.74934 12.1569 9.33623L12.159 9.406L12.159 9.40683L12.1731 9.88414C12.0905 9.74519 12.0205 9.62749 11.949 9.50722L11.9469 9.50362C11.8748 9.54984 11.8737 9.60844 11.8726 9.66672C11.8719 9.70754 11.8712 9.74821 11.846 9.78436C11.7855 9.74949 11.7597 9.69274 11.7347 9.63765C11.728 9.6227 11.7212 9.60788 11.7139 9.59364C11.6735 9.51535 11.6109 9.48412 11.5303 9.50803C11.3148 9.57199 11.1 9.63845 10.8728 9.70876C10.7878 9.73509 10.7009 9.76195 10.6117 9.78943C10.4909 9.71631 10.3522 9.74697 10.2079 9.77885C10.1463 9.79247 10.0837 9.80632 10.021 9.81239C9.97371 9.81695 9.92729 9.8295 9.88079 9.84207C9.84222 9.85249 9.80361 9.86293 9.76441 9.86883ZM8.01174 34.8523C7.78298 35.0396 7.52294 35.1622 7.23221 35.2205L7.2109 35.2218C6.92692 35.2395 6.67641 35.2551 6.42973 35.1851C6.15737 35.1078 5.94712 34.9476 5.78686 34.7196C5.77292 34.6998 5.76439 34.6762 5.75299 34.6447C5.74671 34.6273 5.73955 34.6075 5.73013 34.5846C5.76279 34.5833 5.79313 34.5817 5.82189 34.5801L5.82215 34.5801L5.82236 34.5801L5.82252 34.5801L5.82265 34.5801C5.88126 34.5769 5.93336 34.574 5.98533 34.5755C6.36519 34.5861 6.74064 34.5619 7.11066 34.4665C7.60559 34.3388 8.01455 34.0829 8.33726 33.6881C8.72952 33.2082 9.02272 32.6745 9.2298 32.0926C9.28545 31.9362 9.34713 31.7819 9.44219 31.6302C9.44046 31.6576 9.43972 31.6853 9.43898 31.7129C9.43739 31.7726 9.43579 31.8323 9.42419 31.8901C9.29964 32.5096 9.15546 33.1232 8.87432 33.6962C8.65887 34.1355 8.39553 34.5379 8.01174 34.8523ZM14.122 8.24018C14.2299 8.4751 14.2876 8.71608 14.3449 8.95502C14.3621 9.027 14.3793 9.0988 14.3978 9.17019C14.4462 9.39895 14.4868 9.59474 14.5276 9.79171C14.4444 9.8063 14.422 9.76035 14.4009 9.71711C14.396 9.70705 14.3911 9.69713 14.3856 9.68816C14.3097 9.56514 14.215 9.49689 14.0561 9.4985C13.8881 9.50019 13.7201 9.49454 13.552 9.48888C13.3896 9.48342 13.2272 9.47795 13.0648 9.47913C12.9824 9.47972 12.9352 9.43782 12.8844 9.39273C12.8642 9.37475 12.8434 9.35627 12.8195 9.33976C12.792 9.35729 12.7644 9.37484 12.7374 9.39206C12.7225 9.40153 12.7078 9.41089 12.6933 9.42009C12.688 9.41672 12.6825 9.414 12.6775 9.41149C12.6679 9.40671 12.6598 9.4027 12.6573 9.39648C12.5371 9.10466 12.4248 8.81009 12.3781 8.49602C12.3697 8.43885 12.3719 8.37965 12.374 8.32143L12.3742 8.31445C12.3797 8.1584 12.3971 8.12887 12.5522 8.14318C12.8362 8.16937 13.1193 8.20535 13.4024 8.24132C13.4735 8.25036 13.5446 8.2594 13.6158 8.26828C13.6891 8.27744 13.7633 8.29041 13.8332 8.31317C13.9389 8.34751 14.0294 8.33011 14.122 8.24018ZM21.403 27.9642C21.6296 27.2472 21.859 26.5582 22.1023 25.8737C22.1888 25.6525 22.2638 25.4338 22.3376 25.2184C22.4287 24.9527 22.5181 24.692 22.6253 24.438C22.6393 24.4405 22.6534 24.4429 22.6674 24.4452C22.6712 24.4842 22.6752 24.5232 22.6791 24.5622C22.6805 24.5751 22.6818 24.5881 22.6831 24.601L22.6831 24.6012L22.6831 24.6014L22.6832 24.6017C22.6945 24.7121 22.7057 24.8225 22.7146 24.9331C22.7335 25.1703 22.7516 25.4076 22.7698 25.6449C22.7873 25.8743 22.8049 26.1037 22.8231 26.333C22.8394 26.5398 22.8579 26.7465 22.8783 26.953C22.8877 27.0489 22.8604 27.1187 22.7728 27.1712C22.5197 27.3231 22.2674 27.4763 22.0151 27.6296C21.8469 27.7318 21.6786 27.834 21.5102 27.9357C21.497 27.9437 21.4811 27.947 21.4566 27.952C21.4421 27.955 21.4246 27.9586 21.403 27.9642ZM12.7472 11.2373C13.0269 11.9864 13.3093 12.7302 13.6778 13.4382C13.89 13.8087 14.0924 14.1619 14.2958 14.5171L14.4375 14.7645C14.306 14.8326 14.1678 14.8663 14.0296 14.8444C13.9707 14.8351 13.9043 14.7661 13.8728 14.7076C13.5726 14.1504 13.3059 13.5778 13.1384 12.9661C13.0298 12.5695 12.9304 12.1704 12.8311 11.7714C12.8042 11.6635 12.7773 11.5555 12.7503 11.4476C12.7336 11.3813 12.7326 11.3112 12.7472 11.2373ZM24.2756 17.5725C24.2274 17.5901 24.1788 17.6063 24.1301 17.6226C24.1087 17.6297 24.0873 17.6368 24.066 17.6441C23.9328 17.6143 23.8329 17.5842 23.6942 17.5424L23.6913 17.5415C23.7171 17.5132 23.7388 17.4873 23.7583 17.4639C23.7953 17.4196 23.8249 17.3841 23.8613 17.358C24.1524 17.1496 24.4692 17.0095 24.8383 17.0234C24.9039 17.0258 24.9696 17.025 25.0353 17.0241C25.1989 17.022 25.3625 17.0198 25.5239 17.0692C25.8012 17.154 26.0462 17.2878 26.2443 17.5004C26.2609 17.5183 26.2737 17.5398 26.2894 17.5664C26.2978 17.5805 26.3071 17.596 26.3182 17.6132C26.1102 17.6832 25.9318 17.7213 25.7288 17.6217C25.2559 17.3898 24.7669 17.3926 24.2756 17.5725ZM8.61384 18.6939C8.576 18.7775 8.60543 18.8511 8.63485 18.9248C8.6474 18.9562 8.65995 18.9876 8.66728 19.0198C8.74328 19.1503 8.80791 19.2526 8.87417 19.3538C8.93192 19.442 8.92303 19.4838 8.83417 19.5275C8.62297 19.6315 8.46908 19.5831 8.37132 19.3673C8.32201 19.2584 8.2772 19.141 8.26419 19.0238C8.2392 18.7988 8.23173 18.5718 8.22426 18.3453C8.22378 18.3304 8.22329 18.3156 8.2228 18.3008C8.22087 18.2428 8.23162 18.1743 8.26276 18.1281C8.29169 18.0852 8.35388 18.0445 8.40454 18.0403C8.48467 18.0339 8.4897 18.1099 8.49315 18.1713C8.49463 18.1978 8.49433 18.2243 8.49403 18.2508C8.49387 18.2647 8.49371 18.2786 8.49381 18.2926C8.49386 18.2999 8.494 18.3071 8.49417 18.3144C8.49422 18.3169 8.49428 18.3193 8.49435 18.3217C8.49442 18.3244 8.49449 18.3271 8.49456 18.3299C8.49513 18.3511 8.49569 18.3724 8.49504 18.3937C8.49349 18.4441 8.52725 18.4805 8.56103 18.5169C8.60566 18.5651 8.65035 18.6133 8.61384 18.6939ZM9.68912 23.718C9.7207 23.6091 9.80441 23.5851 9.90524 23.5874C10.0672 23.6352 10.1973 23.6822 10.3471 23.7362L10.3485 23.7367C10.1211 23.8723 9.88723 23.8603 9.68912 23.718ZM8.18425 19.9205C8.21381 19.8412 8.26278 19.875 8.30436 19.9177C8.30069 20.0403 8.30069 20.0403 8.16871 20.0983C8.17028 20.0764 8.17051 20.0553 8.17072 20.0352C8.17118 19.9928 8.1716 19.9544 8.18425 19.9205ZM27.452 11.1719C27.457 11.1818 27.462 11.1917 27.467 11.2016C27.4697 11.2069 27.4724 11.2123 27.4751 11.2176C27.4791 11.2255 27.483 11.2333 27.487 11.2412C27.4555 11.2323 27.4408 11.2102 27.4261 11.188L27.4259 11.1877L27.452 11.1719ZM29.893 8.57617C29.8937 8.58849 29.8944 8.60082 29.8951 8.61314C29.8954 8.6186 29.8957 8.62406 29.896 8.62951C29.8963 8.63638 29.8967 8.64325 29.8971 8.65012C29.9036 8.63284 29.91 8.61556 29.893 8.57617Z" fill="white"/>
<path d="M27.367 11.0458C27.3662 11.0257 27.3654 11.0057 27.3646 10.9856C27.3722 10.9925 27.3799 10.9993 27.3802 11.0174C27.3728 11.0286 27.367 11.0458 27.367 11.0458Z" fill="white"/>
<path d="M27.33 10.9062C27.3324 10.9047 27.3276 10.9077 27.33 10.9062Z" fill="white"/>
<path d="M15.1777 16.2177C15.619 16.4364 16.0615 16.653 16.5006 16.8762C16.5685 16.9108 16.6463 16.9652 16.6739 17.0297C16.7146 17.1248 16.774 17.151 16.8612 17.1437C16.9677 17.1349 17.0736 17.1183 17.2033 17.1022C17.1773 17.1575 17.1598 17.1948 17.14 17.237C17.2222 17.3631 17.3689 17.2683 17.487 17.3378C17.3687 17.544 17.0903 17.481 16.9505 17.6523C16.9804 17.6878 17.0088 17.7216 17.0486 17.7692C16.9813 17.8169 16.9179 17.8618 16.855 17.9063C16.8547 18.0742 16.7934 18.1715 16.3634 18.2913C16.3759 18.3314 16.3883 18.3716 16.405 18.4253C16.2977 18.4476 16.2018 18.4676 16.0888 18.4911C16.1254 18.5548 16.1561 18.6078 16.2018 18.6872C16.0579 18.6872 15.935 18.6872 15.7982 18.6872C15.7946 18.7647 15.7919 18.8207 15.788 18.9027C15.6581 18.8886 15.5294 18.8746 15.3959 18.8602C15.3665 18.9276 15.3407 18.9869 15.3108 19.0554C15.267 19.0422 15.2267 19.0372 15.1938 19.0188C15.0861 18.9587 14.9871 18.9301 14.8791 19.0276C14.8492 19.0545 14.7786 19.0498 14.7307 19.04C14.6881 19.0314 14.6509 18.9956 14.6161 18.9748C14.441 19.1241 14.441 19.1241 14.282 18.9785C14.1905 19.0514 14.0891 19.0955 13.9829 18.997C13.8816 19.0384 13.7859 18.9663 13.6964 18.9746C13.5849 18.9848 13.5411 18.9196 13.4833 18.8649C13.4138 18.882 13.3508 18.8976 13.2745 18.9164C13.2525 18.5433 12.962 18.6157 12.7282 18.5961C12.7354 18.4816 12.809 18.4503 12.8796 18.4472C12.9645 18.4435 13.054 18.4568 13.1357 18.4817C13.3995 18.5621 13.6518 18.672 13.9336 18.7003C14.2594 18.7329 14.5844 18.7455 14.9012 18.6763C15.3268 18.5834 15.738 18.4407 16.038 18.0999C16.1163 18.0108 16.1714 17.8993 16.2253 17.7922C16.2559 17.7318 16.2583 17.6588 16.1933 17.6083C16.0132 17.4682 15.8181 17.3552 15.5786 17.2661C15.6183 17.4546 15.529 17.5535 15.3937 17.6154C15.3937 17.6378 15.3883 17.6547 15.3945 17.6633C15.5239 17.8438 15.5297 17.9138 15.3826 18.0845C15.278 18.2059 15.1613 18.3217 15.0327 18.4173C14.7092 18.6583 14.2859 18.6221 14.0006 18.3395C13.9241 18.2638 13.8512 18.1832 13.787 18.0972C13.6618 17.9295 13.6648 17.9274 13.7334 17.726C13.468 17.598 13.5284 17.3691 13.5666 17.1499C13.5801 17.0727 13.6123 16.9986 13.6454 16.8928C13.5824 16.9148 13.5374 16.9204 13.5051 16.9434C13.294 17.0937 13.1065 17.2663 12.9978 17.508C12.9869 17.5324 12.9821 17.5615 12.9655 17.5812C12.9457 17.6051 12.9112 17.6412 12.8926 17.6363C12.8614 17.6281 12.8331 17.5948 12.8127 17.5658C12.7991 17.5463 12.8013 17.516 12.7936 17.4763C12.7322 17.4763 12.6755 17.4763 12.5898 17.4763C12.6219 17.3742 12.6469 17.2946 12.6751 17.2048C12.6586 17.1839 12.6342 17.1533 12.6135 17.1273C12.6672 16.9904 12.7189 16.8582 12.7893 16.6787C12.693 16.7188 12.6432 16.7482 12.5895 16.7594C12.541 16.7695 12.4881 16.7596 12.4373 16.7585C12.4388 16.7094 12.4212 16.6474 12.4447 16.6132C12.6834 16.2664 12.934 15.9376 13.3971 15.8627C13.7117 15.8119 14.0248 15.7659 14.344 15.7845C14.4241 15.7892 14.5074 15.7974 14.5823 15.8236C14.9062 15.9369 15.2282 16.056 15.5493 16.1773C15.5941 16.1943 15.6296 16.2355 15.6695 16.2655C15.6627 16.2794 15.656 16.2933 15.6492 16.3072C15.5175 16.2647 15.3859 16.2222 15.2297 16.1668C15.0447 16.1061 14.887 16.0451 14.7236 16.0129C14.321 15.9338 14.3199 15.9391 14.2532 15.9906C14.556 16.0649 14.8668 16.1414 15.1777 16.2177Z" fill="white"/>
<path d="M10.0545 21.7923C9.85409 21.6389 9.66804 21.4867 9.48362 21.3327C9.46567 21.3177 9.45774 21.2908 9.44379 21.2672C9.64859 21.2057 9.9022 21.2972 10.0443 21.4927C10.0882 21.5533 10.1018 21.6384 10.1178 21.7147C10.1224 21.7366 10.0866 21.7668 10.0545 21.7923Z" fill="white"/>
<path d="M12.8582 18.035C12.8526 17.9747 12.8502 17.9161 12.9172 17.9378C12.9425 17.9461 12.9707 18.0126 12.9623 18.0429C12.9451 18.1053 12.9004 18.0935 12.8582 18.035Z" fill="white"/>
</svg>
