<svg width="40" height="40" viewBox="0 0 40 40" fill="none" xmlns="http://www.w3.org/2000/svg">
<path d="M35.4775 10C35.6544 10 35.8016 10.1425 35.8016 10.3179V29.3633C35.8016 29.5358 35.6544 29.679 35.4775 29.679H31.3045C31.1254 29.679 30.9798 29.5358 30.9798 29.3633V10.3179C30.9798 10.1426 31.1253 10 31.3045 10H35.4775ZM17.3681 10C20.516 10 23.8075 10.1443 25.4309 11.7688C27.027 13.3675 27.1998 16.5505 27.2065 19.6416V29.3632C27.2065 29.5357 27.0611 29.6789 26.8828 29.6789H22.7103C22.5316 29.6789 22.3856 29.5357 22.3856 29.3632V19.4743C22.3812 17.748 22.2819 15.9737 21.3916 15.0805C20.6254 14.3121 19.1954 14.1361 17.7085 14.0996H10.1451C9.96767 14.0996 9.82245 14.2423 9.82245 14.415V29.3633C9.82245 29.5358 9.67543 29.679 9.49693 29.679H5.32191C5.1435 29.679 5 29.5358 5 29.3633V10.3179C5 10.1426 5.1434 10 5.32191 10H17.3681ZM18.302 17.5853C18.4796 17.5853 18.6239 17.7273 18.6239 17.9013V29.3633C18.6239 29.5358 18.4795 29.679 18.302 29.679H13.919C13.7388 29.679 13.5944 29.5358 13.5944 29.3633V17.9013C13.5944 17.7273 13.7388 17.5853 13.919 17.5853H18.302Z" fill="#FF6900"/>
</svg>
