<svg width="40" height="40" viewBox="0 0 40 40" fill="none" xmlns="http://www.w3.org/2000/svg">
<path d="M35.315 14.9837C35.2067 15.3086 35.0984 15.7418 34.8818 16.175C33.474 19.2072 29.7919 25.0552 29.7919 25.0552L28.7089 26.8963H33.9071L24.0522 40L26.3265 31.1198H22.3195L23.7274 25.2718C22.5361 25.5967 21.2365 25.9216 19.6121 26.463C19.6121 26.463 17.4462 27.7626 13.4393 24.0805C13.4393 24.0805 10.7319 21.6981 12.248 21.0483C12.8978 20.8317 15.4969 20.5068 17.5545 20.1819C20.3702 19.857 21.9947 19.6404 21.9947 19.6404C21.9947 19.6404 13.4393 19.7487 11.4899 19.4239C9.43234 19.099 6.94153 15.7418 6.40008 12.7095C6.40008 12.7095 5.5337 11.0851 8.24108 11.8431C10.9484 12.6012 21.8863 14.8754 21.8863 14.8754C21.8863 14.8754 7.5913 10.4353 6.61664 9.35236C5.64198 8.26937 3.80099 3.5044 4.01755 0.580418C4.01755 0.580418 4.12588 -0.177685 4.88393 0.0389229C4.88393 0.0389229 15.4969 4.91223 22.7527 7.51132C29.9002 10.2187 36.1813 11.6266 35.315 14.9837Z" fill="#4285F4"/>
</svg>
