<svg width="40" height="40" viewBox="0 0 40 40" fill="none" xmlns="http://www.w3.org/2000/svg">
<path d="M33.8838 6.67999C31.2945 5.428 28.526 4.5181 25.6315 4C25.276 4.66419 24.8607 5.55754 24.5744 6.2682C21.4975 5.78999 18.4489 5.78999 15.4286 6.2682C15.1423 5.55754 14.7176 4.66419 14.3589 4C11.4613 4.5181 8.68959 5.43134 6.10032 6.68662C0.877738 14.8427 -0.538019 22.7962 0.169861 30.6368C3.63375 33.3101 6.99068 34.934 10.291 35.9967C11.1058 34.8377 11.8326 33.6057 12.4586 32.3072C11.2663 31.839 10.1242 31.2611 9.04512 30.5903C9.3314 30.3711 9.61143 30.142 9.88197 29.9062C16.4637 33.0876 23.6148 33.0876 30.1179 29.9062C30.3916 30.142 30.6716 30.3711 30.9547 30.5903C29.8725 31.2644 28.7273 31.8423 27.5349 32.3105C28.161 33.6057 28.8846 34.8411 29.7026 36C33.0061 34.9373 36.3661 33.3134 39.83 30.6368C40.6606 21.5476 38.4111 13.6671 33.8838 6.67999ZM13.3553 25.8149C11.3795 25.8149 9.75925 23.9087 9.75925 21.5874C9.75925 19.2661 11.3449 17.3566 13.3553 17.3566C15.3657 17.3566 16.9859 19.2628 16.9513 21.5874C16.9545 23.9087 15.3657 25.8149 13.3553 25.8149ZM26.6446 25.8149C24.6688 25.8149 23.0485 23.9087 23.0485 21.5874C23.0485 19.2661 24.6342 17.3566 26.6446 17.3566C28.6549 17.3566 30.2752 19.2628 30.2406 21.5874C30.2406 23.9087 28.6549 25.8149 26.6446 25.8149Z" fill="#5865F2"/>
</svg>
