<svg width="40" height="40" viewBox="0 0 40 40" fill="none" xmlns="http://www.w3.org/2000/svg">
<path d="M29.9866 13.7077C30.415 13.5555 30.9919 13.4227 31.4365 13.3345C34.2782 12.7797 37.2229 13.1485 39.8399 14.3871C39.8942 14.413 39.9476 14.4406 40 14.4698C39.3103 15.1801 38.8241 15.7582 38.2668 16.5818C37.7381 17.3632 37.4589 18.0007 37.0442 18.8218C36.5371 19.8154 36.036 20.8119 35.5407 21.8115C35.263 22.3673 34.9899 22.9333 34.6856 23.4743C34.6036 23.62 34.4289 23.9611 34.336 24.0868C33.3422 25.8276 32.1166 27.4256 30.6929 28.8371C27.818 31.7499 24.2282 33.8559 20.2828 34.9441C14.2568 36.6132 7.81444 35.8181 2.3748 32.7345C2.06487 32.5589 1.75932 32.3757 1.45846 32.185C0.653892 31.6799 0.0940786 31.2229 0.0287943 30.1951C-0.013827 29.5237 0.00866155 28.8366 0.00872699 28.1637L0.00977407 24.5989L0.00648039 17.4085C0.00632771 16.1697 -0.0111221 14.8835 0.0118899 13.648C0.157902 13.4078 0.379864 13.3172 0.582217 13.5095C0.931803 13.8417 1.30815 14.2669 1.6489 14.6069C2.43677 15.3967 3.25093 16.1599 4.09003 16.895C7.55993 19.9331 11.4344 22.4753 15.6026 24.4491C15.729 24.3945 16.3482 24.0192 16.5072 23.9267C18.0777 23.0119 19.4068 21.9577 20.7456 20.7381C21.1738 20.3836 21.8879 19.6189 22.3128 19.2004L23.8388 17.6993C24.3409 17.2013 24.7964 16.7319 25.3375 16.2741C26.7713 15.0617 28.2205 14.2984 29.9866 13.7077Z" fill="#3370FE"/>
<path d="M29.9866 13.7077C30.415 13.5555 30.9919 13.4227 31.4365 13.3345C34.2782 12.7797 37.2228 13.1485 39.8399 14.3871C39.8942 14.413 39.9476 14.4406 40 14.4698C39.3103 15.1801 38.8241 15.7582 38.2668 16.5818C37.7381 17.3632 37.4589 18.0007 37.0442 18.8218C36.5371 19.8154 36.036 20.8119 35.5407 21.8115C35.263 22.3673 34.9899 22.9333 34.6856 23.4743C34.6036 23.62 34.4289 23.9611 34.336 24.0868C34.2631 24.1169 33.6417 24.86 33.5429 24.9721C31.3412 27.4679 27.8534 28.439 24.6389 27.7159C23.9546 27.5619 23.1895 27.3375 22.4825 27.1198C20.7977 26.598 19.1396 25.9934 17.5143 25.3085C17.1026 25.1362 16.6933 24.958 16.2867 24.7739C16.0886 24.6825 15.7955 24.5239 15.6026 24.4491C15.7289 24.3945 16.3482 24.0192 16.5072 23.9267C18.0777 23.0119 19.4068 21.9577 20.7456 20.7381C21.1738 20.3836 21.8879 19.6189 22.3128 19.2004L23.8388 17.6993C24.3409 17.2013 24.7964 16.7319 25.3375 16.2741C26.7713 15.0617 28.2205 14.2984 29.9866 13.7077Z" fill="#123D9A"/>
<path d="M20.7456 20.7382C20.1768 19.7275 19.5784 18.7338 18.9513 17.7584C16.7187 14.3153 14.0737 11.1579 11.0751 8.3565C9.84982 7.21877 8.56959 6.14162 7.23906 5.12893C7.07868 5.00785 6.46017 4.59746 6.42223 4.41598C6.31479 3.90201 7.03743 4.00905 7.34489 4.00974L8.47436 4.01153L12.4634 4.01241L20.2435 4.0119L22.6959 4.01132C23.49 4.01108 24.3946 3.90173 25.0773 4.36786C25.5027 4.6582 25.7974 5.11225 26.1043 5.51942C27.668 7.62352 28.8659 9.97607 29.6481 12.4783C29.7665 12.8655 29.9105 13.3153 29.9866 13.7077C28.2205 14.2984 26.7713 15.0617 25.3375 16.2742C24.7964 16.7319 24.3409 17.2014 23.8388 17.6993L22.3128 19.2005C21.8879 19.6189 21.1738 20.3837 20.7456 20.7382Z" fill="#00D7B7"/>
</svg>
