<svg width="40" height="40" viewBox="0 0 40 40" fill="none" xmlns="http://www.w3.org/2000/svg">
<g clip-path="url(#clip0_5440_47011)">
<path fill-rule="evenodd" clip-rule="evenodd" d="M4.44847 37.0623V23.4666H0.942755C0.756147 23.4642 0.574335 23.4071 0.419819 23.3025C0.265303 23.1978 0.144866 23.0502 0.0734118 22.8777C0.00195741 22.7053 -0.0173774 22.5158 0.0177996 22.3325C0.0529766 22.1492 0.141122 21.9803 0.271327 21.8466L19.157 2.49657C19.2652 2.38568 19.3943 2.29735 19.5369 2.23669C19.6794 2.17603 19.8326 2.14425 19.9875 2.14319C20.1424 2.14212 20.296 2.1718 20.4394 2.2305C20.5828 2.28919 20.7131 2.37575 20.8228 2.48514L20.8328 2.49514L30.6899 12.548V10.6909C30.6893 10.5871 30.7092 10.4843 30.7484 10.3882C30.7876 10.2921 30.8453 10.2047 30.9183 10.131C30.9912 10.0572 31.078 9.99857 31.1736 9.95835C31.2693 9.91813 31.3719 9.89714 31.4756 9.89658H34.7499C34.9592 9.89809 35.1593 9.98257 35.3064 10.1315C35.4534 10.2804 35.5353 10.4816 35.5342 10.6909V17.5194L39.7313 21.8566C39.9066 22.0376 40.0033 22.2804 40.0006 22.5324C39.998 22.7843 39.8961 23.025 39.7171 23.2023C39.5411 23.3757 39.3041 23.4732 39.0571 23.4737H35.5371V37.0694C35.5382 37.2787 35.4563 37.4799 35.3092 37.6288C35.1622 37.7777 34.962 37.8622 34.7528 37.8637H5.23419C5.12983 37.8632 5.02663 37.8419 4.93052 37.8013C4.83442 37.7606 4.74733 37.7013 4.67427 37.6268C4.60122 37.5523 4.54365 37.464 4.50489 37.3671C4.46614 37.2703 4.44696 37.1666 4.44847 37.0623Z" fill="#3DBCF3"/>
<path d="M28.1685 18.6709C27.6353 18.6735 27.1079 18.7812 26.6164 18.9878C26.1249 19.1944 25.6789 19.4958 25.304 19.8749C24.929 20.2539 24.6325 20.7031 24.4313 21.1969C24.23 21.6906 24.1281 22.2192 24.1313 22.7523C24.1316 23.2997 24.2404 23.8415 24.4513 24.3466L21.507 27.3223V18.2723C22.3755 17.9209 23.0947 17.2784 23.5414 16.4549C23.9881 15.6314 24.1345 14.6782 23.9555 13.7586C23.7765 12.839 23.2833 12.0103 22.5603 11.4144C21.8373 10.8186 20.9296 10.4928 19.9928 10.4928C19.0559 10.4928 18.1482 10.8186 17.4252 11.4144C16.7022 12.0103 16.209 12.839 16.03 13.7586C15.851 14.6782 15.9974 15.6314 16.4441 16.4549C16.8908 17.2784 17.61 17.9209 18.4785 18.2723V27.3223L15.5342 24.3466C15.7451 23.8415 15.8539 23.2997 15.8542 22.7523C15.8452 21.9559 15.6007 21.1799 15.1517 20.522C14.7026 19.8641 14.069 19.3538 13.3306 19.0552C12.5921 18.7567 11.7819 18.6832 11.0018 18.8441C10.2217 19.005 9.50662 19.3931 8.94658 19.9595C8.38654 20.5259 8.00655 21.2452 7.85445 22.0271C7.70234 22.809 7.78491 23.6183 8.09177 24.3534C8.39863 25.0884 8.91607 25.7162 9.57894 26.1579C10.2418 26.5995 11.0205 26.8351 11.817 26.8352C12.3574 26.8343 12.8919 26.724 13.3885 26.5109L18.4728 31.6538V37.8566H21.5013V31.6523L26.587 26.5095C27.0836 26.7226 27.6181 26.8329 28.1585 26.8338C29.2279 26.8138 30.2468 26.3749 30.996 25.6115C31.7452 24.8481 32.165 23.8212 32.165 22.7516C32.165 21.682 31.7452 20.6551 30.996 19.8917C30.2468 19.1284 29.2279 18.6895 28.1585 18.6695L28.1685 18.6709ZM11.817 24.3852C11.4933 24.3889 11.1758 24.2962 10.9049 24.1191C10.6339 23.9419 10.4217 23.6882 10.2953 23.3902C10.1689 23.0922 10.1339 22.7633 10.1948 22.4453C10.2556 22.1274 10.4097 21.8347 10.6373 21.6045C10.8649 21.3742 11.1558 21.2169 11.473 21.1523C11.7903 21.0878 12.1195 21.1191 12.419 21.2421C12.7184 21.3651 12.9745 21.5744 13.1548 21.8433C13.335 22.1122 13.4313 22.4286 13.4313 22.7523C13.4326 22.9656 13.3919 23.177 13.3115 23.3745C13.2311 23.572 13.1125 23.7517 12.9626 23.9033C12.8127 24.0549 12.6343 24.1756 12.4378 24.2582C12.2412 24.3409 12.0303 24.3841 11.817 24.3852ZM19.9999 16.1195C19.6762 16.1229 19.3589 16.03 19.0881 15.8527C18.8173 15.6753 18.6054 15.4215 18.4792 15.1235C18.3529 14.8254 18.3182 14.4966 18.3792 14.1787C18.4403 13.8608 18.5944 13.5683 18.8221 13.3382C19.0497 13.1081 19.3406 12.9509 19.6578 12.8865C19.975 12.8221 20.3042 12.8534 20.6036 12.9765C20.903 13.0995 21.159 13.3088 21.3392 13.5777C21.5194 13.8466 21.6156 14.1629 21.6156 14.4866C21.6169 14.7 21.5762 14.9115 21.4956 15.1091C21.4151 15.3067 21.2964 15.4864 21.1464 15.6381C20.9963 15.7898 20.8178 15.9103 20.6211 15.9929C20.4243 16.0755 20.2133 16.1185 19.9999 16.1195ZM28.1756 24.3852C27.852 24.3886 27.5346 24.2957 27.2638 24.1184C26.9931 23.941 26.7811 23.6872 26.6549 23.3892C26.5287 23.0911 26.4939 22.7623 26.5549 22.4444C26.616 22.1266 26.7701 21.834 26.9978 21.6039C27.2254 21.3738 27.5164 21.2166 27.8336 21.1522C28.1508 21.0878 28.4799 21.1191 28.7793 21.2422C29.0787 21.3653 29.3347 21.5745 29.5149 21.8434C29.6951 22.1123 29.7913 22.4287 29.7913 22.7523C29.7926 22.9663 29.7516 23.1784 29.6707 23.3764C29.5897 23.5745 29.4704 23.7546 29.3196 23.9063C29.1687 24.0581 28.9894 24.1785 28.7918 24.2607C28.5943 24.3429 28.3824 24.3852 28.1685 24.3852H28.1756Z" fill="white"/>
</g>
<defs>
<clipPath id="clip0_5440_47011">
<rect width="40" height="40" fill="white"/>
</clipPath>
</defs>
</svg>
