<svg width="40" height="40" viewBox="0 0 40 40" fill="none" xmlns="http://www.w3.org/2000/svg">
<path d="M5.84681 4.09542V35.9046H8.04472V36.6667H5V3.33334H8.04472V4.09542H5.84681Z" fill="white"/>
<path d="M34.1532 35.9046V4.09542H31.9553V3.33334H35V36.6667H31.9553V35.9046H34.1532Z" fill="white"/>
<path d="M3.01618 0.914489V39.0855H5.65366V40H2V0H5.65366V0.914489H3.01618Z" fill="white"/>
<path d="M13.1893 14.5179V16.4537H13.2464C13.7374 15.7174 14.3425 15.1473 15.039 14.7435C15.7355 14.3397 16.5347 14.1378 17.4367 14.1378C18.3045 14.1378 19.0923 14.316 19.8116 14.6604C20.5309 15.0048 21.0676 15.6224 21.4443 16.5131C21.8554 15.8837 22.4034 15.3373 23.0999 14.8623C23.7964 14.3872 24.6299 14.1497 25.5775 14.1497C26.3083 14.1497 26.9705 14.2447 27.5985 14.4229C28.215 14.601 28.7517 14.8979 29.1855 15.3017C29.6308 15.7055 29.9734 16.24 30.2245 16.8932C30.4757 17.5464 30.6013 18.3302 30.6013 19.2566V28.8053H26.8335V20.7174C26.8335 20.2423 26.8107 19.791 26.7764 19.3635C26.7421 18.9359 26.6394 18.5677 26.4795 18.259C26.3197 17.9502 26.0913 17.7008 25.7716 17.5107C25.4634 17.3326 25.0409 17.2376 24.5157 17.2376C23.9905 17.2376 23.5566 17.3445 23.2255 17.5582C22.8944 17.772 22.6432 18.0452 22.4605 18.3896C22.2778 18.734 22.1522 19.1141 22.0837 19.5535C22.0266 19.981 21.9924 20.4205 21.9924 20.8599V28.8053H18.2245V20.8005C18.2245 20.373 18.2131 19.9573 18.2017 19.5416C18.1789 19.1259 18.1104 18.7459 17.9734 18.4015C17.8363 18.0571 17.6194 17.772 17.3111 17.5582C17.0029 17.3445 16.5461 17.2376 15.941 17.2376C15.7583 17.2376 15.53 17.2732 15.2331 17.3563C14.9362 17.4395 14.6622 17.5939 14.3882 17.8195C14.1142 18.0452 13.8744 18.3777 13.6803 18.8172C13.4862 19.2447 13.3834 19.8148 13.3834 20.5155V28.7934H9.6156V14.5179H13.1893Z" fill="white"/>
<path d="M36.9838 39.0855V0.914489H34.3463V0H38V40H34.3463V39.0855H36.9838Z" fill="white"/>
</svg>
