<svg width="40" height="40" viewBox="0 0 40 40" fill="none" xmlns="http://www.w3.org/2000/svg">
<g clip-path="url(#clip0_5440_47029)">
<path d="M18.8423 0.0558933C10.994 0.598808 4.31138 5.44511 1.4531 12.6547C-1.10179 19.1218 -0.111771 26.4511 4.08783 32.016C7.26547 36.2475 11.8483 38.9621 17.2056 39.7605C18.523 39.9761 21.0379 40.016 22.2755 39.8563C26.1637 39.3533 29.6367 37.8922 32.5749 35.529C33.6128 34.6906 35.2096 33.0379 35.9441 32.0399C38.0519 29.2056 39.3613 25.988 39.8563 22.4351C39.984 21.4531 39.984 18.5469 39.8563 17.5649C39.5369 15.3054 38.8982 13.1896 37.9242 11.2176C36.9022 9.14172 35.8084 7.6008 34.1876 5.96408C33.3573 5.10979 31.9521 3.91218 31.8084 3.91218C31.7605 3.91218 31.7765 4.7505 31.8323 5.98803L31.9361 8.06388L32.495 8.75849C34.012 10.6507 35.1138 13.0299 35.5449 15.3852C35.7445 16.503 35.7844 18.8184 35.6248 19.8403C35.2655 22.0599 34.4112 24.1517 33.1497 25.9481C32.4631 26.9222 30.9142 28.4711 29.9401 29.1577C28.024 30.515 25.9481 31.3613 23.5529 31.7924C22.7545 31.9361 19.6407 31.9361 18.8423 31.7924C15.4092 31.1777 12.5509 29.7166 10.2834 27.4172C7.94412 25.0459 6.57086 22.3074 6.0998 19.0818C5.94012 17.9641 5.98004 15.7285 6.17965 14.6906C7.18563 9.69262 10.5389 5.74851 15.3293 3.96807C15.9681 3.72855 16.7984 3.505 17.6846 3.31338C17.8204 3.28144 20.4311 0.279446 20.503 0.0718614C20.5269 -0.00797891 19.6886 -0.00797891 18.8423 0.0399253V0.0558933Z" fill="white"/>
<path d="M25.7245 1.96408C25.6208 2.02795 25.0539 2.7066 24.4471 3.45709C23.8563 4.21558 22.6587 5.69262 21.7964 6.74652C17.7245 11.7126 16.5269 13.2615 16.1597 14.012C15.6806 14.9701 15.489 15.6886 15.4411 16.6467C15.3453 18.2276 15.8403 19.521 16.9581 20.6387C17.7245 21.3972 18.3633 21.7964 19.4012 22.1317C20.1198 22.3713 20.2315 22.3872 21.3174 22.3872C22.4192 22.3872 22.515 22.3872 23.1217 22.1477C24.974 21.4291 26.2355 19.8802 26.7146 17.7006C26.8742 17.0459 26.8742 15.4092 26.7465 11.3373L26.5868 5.58883C26.507 2.65071 26.475 2.25151 26.3473 2.07586C26.1876 1.83634 25.9641 1.78843 25.7245 1.96408Z" fill="white"/>
</g>
<defs>
<clipPath id="clip0_5440_47029">
<rect width="40" height="40" fill="white"/>
</clipPath>
</defs>
</svg>
