<svg width="40" height="40" viewBox="0 0 40 40" fill="none" xmlns="http://www.w3.org/2000/svg">
<path d="M18.8935 1.04629C11.4182 1.56275 5.05317 6.17291 2.33073 13.0312C-0.102736 19.1831 0.840231 26.1553 4.84024 31.4491C7.86686 35.4744 12.2319 38.0567 17.3346 38.8162C18.5893 39.0213 20.9848 39.0592 22.1635 38.9073C25.8669 38.4289 29.1749 37.039 31.9734 34.7909C32.962 33.9934 34.4829 32.4212 35.1825 31.4718C37.1901 28.7756 38.4373 25.7148 38.9087 22.3351C39.0304 21.4009 39.0304 18.6363 38.9087 17.7021C38.6046 15.5527 37.9962 13.5401 37.0684 11.6641C36.095 9.68939 35.0532 8.22356 33.5095 6.66659C32.7186 5.85392 31.3802 4.71467 31.2433 4.71467C31.1977 4.71467 31.2129 5.51215 31.2661 6.68937L31.365 8.66407L31.8973 9.32484C33.3422 11.1248 34.3916 13.3882 34.8023 15.6287C34.9924 16.692 35.0304 18.8945 34.8783 19.8667C34.5361 21.9781 33.7224 23.968 32.5209 25.6769C31.8669 26.6035 30.3916 28.0769 29.4639 28.7301C27.6388 30.0212 25.6616 30.8263 23.3802 31.2364C22.6197 31.3731 19.654 31.3731 18.8935 31.2364C15.6235 30.6516 12.9011 29.2617 10.7414 27.0743C8.51325 24.8186 7.20526 22.2135 6.75659 19.1452C6.6045 18.0819 6.64252 15.9553 6.83264 14.9679C7.79081 10.2134 10.9847 6.46152 15.5475 4.76784C16.1558 4.53999 16.9467 4.32733 17.7908 4.14505C17.9201 4.11467 20.4068 1.25895 20.4752 1.06148C20.4981 0.98553 19.6996 0.98553 18.8935 1.0311V1.04629Z" fill="white"/>
<path d="M25.4486 2.86147C25.3498 2.92223 24.8098 3.5678 24.2319 4.28173C23.6692 5.00325 22.5285 6.40833 21.7072 7.41087C17.8288 12.135 16.6882 13.6084 16.3383 14.3223C15.8821 15.2337 15.6996 15.9173 15.6539 16.8287C15.5627 18.3325 16.0342 19.5629 17.0988 20.6262C17.8288 21.3477 18.4372 21.7274 19.4258 22.0464C20.1102 22.2743 20.2167 22.2895 21.2509 22.2895C22.3003 22.2895 22.3916 22.2895 22.9695 22.0616C24.7338 21.3781 25.9353 19.9046 26.3916 17.8312C26.5437 17.2084 26.5437 15.6514 26.422 11.778L26.2699 6.30959C26.1939 3.51464 26.1635 3.13489 26.0418 2.9678C25.8897 2.73995 25.6768 2.69438 25.4486 2.86147Z" fill="white"/>
</svg>
