<svg width="40" height="40" viewBox="0 0 40 40" fill="none" xmlns="http://www.w3.org/2000/svg">
<g clip-path="url(#clip0_5440_46952)">
<path d="M0 0V40H40V0H0Z" fill="#3A76F0"/>
<path d="M17.1191 8.35032L17.3885 9.44131C16.3269 9.70367 15.3109 10.1243 14.3746 10.6891L13.7984 9.72428C14.829 9.10015 15.9488 8.63684 17.1191 8.35032ZM22.8809 8.35032L22.6115 9.44131C23.6731 9.70367 24.6891 10.1243 25.6254 10.6891L26.2084 9.72428C25.1751 9.1007 24.0531 8.63745 22.8809 8.35032ZM9.72427 13.795C9.10072 14.8272 8.63746 15.948 8.35031 17.1191L9.44129 17.3885C9.70365 16.3269 10.1243 15.3109 10.6891 14.3746L9.72427 13.795ZM9.12423 20C9.12414 19.4545 9.16517 18.9097 9.24696 18.3704L8.13552 18.1999C7.95483 19.392 7.95483 20.6046 8.13552 21.7967L9.24696 21.6297C9.1653 21.0903 9.12427 20.5455 9.12423 20ZM26.2016 30.2723L25.6254 29.3109C24.6906 29.8762 23.6756 30.2969 22.615 30.5587L22.8843 31.6497C24.0532 31.3604 25.1716 30.8961 26.2016 30.2723ZM30.8758 20C30.8757 20.5455 30.8347 21.0903 30.753 21.6297L31.8645 21.7967C32.0452 20.6046 32.0452 19.392 31.8645 18.1999L30.753 18.3704C30.8348 18.9097 30.8759 19.4545 30.8758 20ZM31.6497 22.8775L30.5587 22.6082C30.297 23.671 29.8763 24.6882 29.3109 25.6254L30.2757 26.205C30.8999 25.172 31.3632 24.0499 31.6497 22.8775ZM21.6297 30.7531C20.5494 30.9167 19.4506 30.9167 18.3703 30.7531L18.2033 31.8645C19.3943 32.0452 20.6057 32.0452 21.7967 31.8645L21.6297 30.7531ZM28.7552 26.4505C28.1072 27.3292 27.3302 28.1051 26.4505 28.7518L27.1187 29.6587C28.0876 28.9454 28.9449 28.0916 29.6621 27.1255L28.7552 26.4505ZM26.4505 11.2448C27.3302 11.8928 28.1072 12.6698 28.7552 13.5496L29.6621 12.8745C28.9474 11.9076 28.0925 11.0526 27.1255 10.338L26.4505 11.2448ZM11.2448 13.5496C11.8928 12.6698 12.6698 11.8928 13.5495 11.2448L12.8745 10.338C11.9075 11.0526 11.0526 11.9076 10.3379 12.8745L11.2448 13.5496ZM30.2757 13.795L29.3109 14.3746C29.8762 15.3094 30.2969 16.3244 30.5587 17.3851L31.6497 17.1157C31.3625 15.9456 30.8992 14.826 30.2757 13.795ZM18.3703 9.24698C19.4506 9.08331 20.5494 9.08331 21.6297 9.24698L21.7967 8.13553C20.6057 7.95482 19.3943 7.95482 18.2033 8.13553L18.3703 9.24698ZM11.821 29.9587L9.49925 30.4974L10.0413 28.1756L8.94694 27.9199L8.40486 30.2417C8.37094 30.3856 8.36573 30.5348 8.38954 30.6808C8.41334 30.8267 8.46569 30.9666 8.54359 31.0923C8.62148 31.218 8.7234 31.3271 8.84351 31.4134C8.96362 31.4997 9.09956 31.5615 9.24355 31.5952C9.41196 31.6327 9.58655 31.6327 9.75495 31.5952L12.0767 31.0599L11.821 29.9587ZM9.17878 26.9176L10.2766 27.1698L10.6516 25.5606C10.1039 24.642 9.69604 23.6469 9.44129 22.6082L8.35031 22.8775C8.59571 23.8718 8.96691 24.8307 9.45493 25.7311L9.17878 26.9176ZM14.4291 29.3518L12.8199 29.7268L13.0756 30.8246L14.2587 30.5485C15.1584 31.038 16.1175 31.4093 17.1123 31.6531L17.3816 30.5621C16.3461 30.304 15.3546 29.8939 14.4394 29.345L14.4291 29.3518ZM20 10.2493C14.6133 10.2527 10.2527 14.6201 10.2527 20.0034C10.2557 21.837 10.7743 23.6328 11.7494 25.1856L10.8118 29.1882L14.811 28.2506C19.3693 31.1178 25.3902 29.7507 28.2574 25.1958C31.1247 20.641 29.7609 14.6201 25.2061 11.7494C23.6467 10.7688 21.842 10.2488 20 10.2493Z" fill="white"/>
</g>
<defs>
<clipPath id="clip0_5440_46952">
<rect width="40" height="40" rx="20" fill="white"/>
</clipPath>
</defs>
</svg>
