<svg width="40" height="40" viewBox="0 0 40 40" fill="none" xmlns="http://www.w3.org/2000/svg">
<path fill-rule="evenodd" clip-rule="evenodd" d="M14.6656 0.000183105C12.4544 0.00181407 10.665 1.79261 10.6666 3.9993C10.665 6.20599 12.4561 7.99679 14.6672 7.99842H18.6678V4.00093C18.6694 1.79424 16.8783 0.00344503 14.6656 0.000183105C14.6672 0.000183105 14.6672 0.000183105 14.6656 0.000183105ZM14.6656 10.6667H4.00059C1.78948 10.6683 -0.00162976 12.4591 4.46614e-06 14.6658C-0.00326399 16.8725 1.78785 18.6633 3.99896 18.6665H14.6656C16.8767 18.6649 18.6678 16.8741 18.6661 14.6674C18.6678 12.4591 16.8767 10.6683 14.6656 10.6667Z" fill="#36C5F0"/>
<path fill-rule="evenodd" clip-rule="evenodd" d="M40 14.6659C40.0016 12.4592 38.2105 10.6684 35.9994 10.6668C33.7883 10.6684 31.9972 12.4592 31.9988 14.6659V18.6667H35.9994C38.2105 18.665 40.0016 16.8742 40 14.6659ZM29.3334 14.6659V3.99942C29.335 1.79436 27.5456 0.0035671 25.3345 0.000305176C23.1233 0.00193614 21.3322 1.79273 21.3339 3.99942V14.6659C21.3306 16.8726 23.1217 18.6634 25.3328 18.6667C27.5439 18.665 29.335 16.8742 29.3334 14.6659Z" fill="#2EB67D"/>
<path fill-rule="evenodd" clip-rule="evenodd" d="M25.332 39.9998C27.5431 39.9981 29.3343 38.2073 29.3326 36.0007C29.3343 33.794 27.5431 32.0032 25.332 32.0015H21.3315V36.0007C21.3298 38.2057 23.1209 39.9965 25.332 39.9998ZM25.332 29.3317H35.9986C38.2097 29.33 40.0009 27.5392 39.9992 25.3325C40.0025 23.1258 38.2114 21.335 36.0003 21.3318H25.3337C23.1226 21.3334 21.3315 23.1242 21.3331 25.3309C21.3315 27.5392 23.1209 29.33 25.332 29.3317Z" fill="#ECB22E"/>
<path fill-rule="evenodd" clip-rule="evenodd" d="M1.11742e-06 25.3327C-0.00163311 27.5394 1.78948 29.3302 4.00059 29.3319C6.2117 29.3302 8.00281 27.5394 8.00117 25.3327V21.3336H4.00059C1.78948 21.3352 -0.00163311 23.126 1.11742e-06 25.3327ZM10.6666 25.3327V35.9992C10.6633 38.2059 12.4544 39.9967 14.6655 40C16.8767 39.9983 18.6678 38.2075 18.6661 36.0009V25.336C18.6694 23.1293 16.8783 21.3385 14.6672 21.3352C12.4544 21.3352 10.665 23.126 10.6666 25.3327Z" fill="#E01E5A"/>
</svg>
