<svg width="24" height="24" viewBox="0 0 24 24" fill="none" xmlns="http://www.w3.org/2000/svg">
<rect width="24" height="24" rx="12" fill="white"/>
<path d="M6.527 14.514a1.636 1.636 0 0 1-1.636 1.636A1.636 1.636 0 0 1 3.255 14.514a1.636 1.636 0 0 1 1.636-1.636h1.636v1.636zm.818 0a1.636 1.636 0 0 1 1.636-1.636 1.636 1.636 0 0 1 1.636 1.636v4.091a1.636 1.636 0 0 1-1.636 1.636 1.636 1.636 0 0 1-1.636-1.636v-4.091z" fill="#E01E5A"/>
<path d="M8.981 6.527a1.636 1.636 0 0 1-1.636-1.636A1.636 1.636 0 0 1 8.981 3.255a1.636 1.636 0 0 1 1.636 1.636v1.636H8.981zm0 .818a1.636 1.636 0 0 1 1.636 1.636 1.636 1.636 0 0 1-1.636 1.636H4.891a1.636 1.636 0 0 1-1.636-1.636 1.636 1.636 0 0 1 1.636-1.636h4.09z" fill="#36C5F0"/>
<path d="M16.968 8.981a1.636 1.636 0 0 1 1.636-1.636 1.636 1.636 0 0 1 1.636 1.636 1.636 1.636 0 0 1-1.636 1.636h-1.636V8.981zm-.818 0a1.636 1.636 0 0 1-1.636 1.636 1.636 1.636 0 0 1-1.636-1.636V4.891a1.636 1.636 0 0 1 1.636-1.636 1.636 1.636 0 0 1 1.636 1.636v4.09z" fill="#2EB67D"/>
<path d="M14.514 16.968a1.636 1.636 0 0 1 1.636 1.636 1.636 1.636 0 0 1-1.636 1.636 1.636 1.636 0 0 1-1.636-1.636v-1.636h1.636zm0-.818a1.636 1.636 0 0 1-1.636-1.636 1.636 1.636 0 0 1 1.636-1.636h4.091a1.636 1.636 0 0 1 1.636 1.636 1.636 1.636 0 0 1-1.636 1.636h-4.091z" fill="#ECB22E"/>
</svg>
