<svg width="40" height="40" viewBox="0 0 40 40" fill="none" xmlns="http://www.w3.org/2000/svg">
<g clip-path="url(#clip0_5440_47014)">
<path d="M19.9707 0C8.96046 0 -7.62939e-06 8.97354 -7.62939e-06 19.9999C-7.62939e-06 31.0262 8.96046 39.9997 19.9707 39.9997C31.0395 40.0584 40 31.0848 40 19.9999C40 8.91489 31.0395 0 19.9707 0ZM19.9707 34.7798C11.8887 34.7798 5.27086 28.1523 5.27086 19.9999C5.27086 11.9061 11.8887 5.27855 19.9707 5.27855C28.1113 5.27855 34.7291 11.9061 34.7291 19.9999C34.7291 28.1523 28.1113 34.7798 19.9707 34.7798Z" fill="#E31E26"/>
<path d="M24.9487 19.1787C27.2452 19.1787 29.1069 17.3143 29.1069 15.0145C29.1069 12.7147 27.2452 10.8503 24.9487 10.8503C22.6523 10.8503 20.7906 12.7147 20.7906 15.0145C20.7906 17.3143 22.6523 19.1787 24.9487 19.1787Z" fill="#E31E26"/>
<path d="M24.9487 29.1493C27.2452 29.1493 29.1069 27.2849 29.1069 24.9851C29.1069 22.6853 27.2452 20.8209 24.9487 20.8209C22.6523 20.8209 20.7906 22.6853 20.7906 24.9851C20.7906 27.2849 22.6523 29.1493 24.9487 29.1493Z" fill="#E31E26"/>
<path d="M14.9927 29.1493C17.2891 29.1493 19.1508 27.2849 19.1508 24.9851C19.1508 22.6853 17.2891 20.8209 14.9927 20.8209C12.6962 20.8209 10.8345 22.6853 10.8345 24.9851C10.8345 27.2849 12.6962 29.1493 14.9927 29.1493Z" fill="#E31E26"/>
<path d="M14.9927 19.1787C17.2891 19.1787 19.1508 17.3143 19.1508 15.0145C19.1508 12.7147 17.2891 10.8503 14.9927 10.8503C12.6962 10.8503 10.8345 12.7147 10.8345 15.0145C10.8345 17.3143 12.6962 19.1787 14.9927 19.1787Z" fill="#E31E26"/>
</g>
<defs>
<clipPath id="clip0_5440_47014">
<rect width="40" height="40" fill="white"/>
</clipPath>
</defs>
</svg>
